<?xml version="1.0" encoding="UTF-8" standalone="no"?>
<!-- Created with Inkscape (http://www.inkscape.org/) -->

<svg
   width="191.04399mm"
   height="60.844547mm"
   viewBox="0 0 191.04399 60.844547"
   version="1.1"
   id="svg5074"
   inkscape:version="1.2.2 (b0a8486541, 2022-12-01)"
   sodipodi:docname="candidate-1-text.svg"
   inkscape:export-filename="candidate-1-text.jpg"
   inkscape:export-xdpi="106.78998"
   inkscape:export-ydpi="106.78998"
   xmlns:inkscape="http://www.inkscape.org/namespaces/inkscape"
   xmlns:sodipodi="http://sodipodi.sourceforge.net/DTD/sodipodi-0.dtd"
   xmlns:xlink="http://www.w3.org/1999/xlink"
   xmlns="http://www.w3.org/2000/svg"
   xmlns:svg="http://www.w3.org/2000/svg">
  <sodipodi:namedview
     id="namedview5076"
     pagecolor="#ffffff"
     bordercolor="#666666"
     borderopacity="1.0"
     inkscape:showpageshadow="2"
     inkscape:pageopacity="0.0"
     inkscape:pagecheckerboard="0"
     inkscape:deskcolor="#d1d1d1"
     inkscape:document-units="mm"
     showgrid="false"
     inkscape:zoom="1.078437"
     inkscape:cx="220.68975"
     inkscape:cy="137.23564"
     inkscape:window-width="944"
     inkscape:window-height="1041"
     inkscape:window-x="10"
     inkscape:window-y="29"
     inkscape:window-maximized="0"
     inkscape:current-layer="text5537" />
  <defs
     id="defs5071">
    <rect
       x="340.61371"
       y="35.650299"
       width="733.64398"
       height="250.17654"
       id="rect5539" />
    <linearGradient
       inkscape:collect="always"
       xlink:href="#linearGradient4503"
       id="linearGradient4505"
       x1="32.888313"
       y1="116.9584"
       x2="172.96964"
       y2="116.9584"
       gradientUnits="userSpaceOnUse"
       gradientTransform="matrix(0.54675626,0,0,0.54675626,-6.1911245,-22.213272)" />
    <linearGradient
       inkscape:collect="always"
       id="linearGradient4503">
      <stop
         style="stop-color:#00ffba;stop-opacity:1;"
         offset="0"
         id="stop4499" />
      <stop
         style="stop-color:#0075d2;stop-opacity:1;"
         offset="1"
         id="stop4501" />
    </linearGradient>
  </defs>
  <g
     inkscape:label="Layer 1"
     inkscape:groupmode="layer"
     id="layer1"
     transform="translate(-10.854801,-10.977484)">
    <g
       aria-label="LURE"
       transform="matrix(0.26458333,0,0,0.26458333,-1.3226044,2.2658879)"
       id="text5537"
       style="font-size:186.667px;line-height:1.25;white-space:pre;shape-inside:url(#rect5539);display:inline">
      <path
         d="M 372.72001,85.583815 V 188.25067 q 0,12.32002 12.50669,12.32002 h 46.48008 l 0.74667,12.69336 q -12.13336,0.93333 -24.82671,1.12 -12.50669,0.18667 -25.01338,0.18667 -14.18669,0 -20.16004,-6.90668 -5.97334,-6.90668 -5.97334,-17.36003 V 85.583815 Z"
         style="font-family:'Exo 2';-inkscape-font-specification:'Exo 2, '"
         id="path691" />
      <path
         d="m 542.2137,85.583815 v 79.520145 q 0,18.6667 -4.48,30.05339 -4.48001,11.38669 -14.56003,16.61336 -10.08002,5.04001 -27.06672,5.04001 -17.36003,0 -27.81338,-5.04001 -10.45335,-5.22667 -15.12003,-16.61336 -4.66667,-11.38669 -4.66667,-30.05339 V 85.583815 h 16.42669 v 79.520145 q 0,13.81336 2.80001,22.02671 2.98667,8.02668 9.70668,11.57335 6.72002,3.36001 17.92004,3.36001 11.20002,0 17.73336,-3.36001 6.72001,-3.54667 9.70669,-11.57335 2.98667,-8.21335 2.98667,-22.02671 V 85.583815 Z"
         style="font-family:'Exo 2';-inkscape-font-specification:'Exo 2, '"
         id="path693" />
      <path
         d="m 618.18725,83.903812 q 14.93337,0 24.08005,3.360006 9.14668,3.173339 13.25336,11.200021 4.29334,8.026681 4.29334,22.586711 0,15.68003 -5.60001,23.70671 -5.41335,7.84001 -18.1067,9.52001 v 0.93334 q 4.85334,1.30667 9.33335,5.78668 4.48001,4.48 6.53334,12.69335 l 12.50669,40.69341 h -17.5467 l -11.38668,-40.32007 q -2.42667,-7.28002 -6.53335,-10.26669 -4.10667,-3.17334 -10.64002,-3.17334 -8.96001,0 -16.05336,0 -6.90668,-0.18666 -12.32002,-0.18666 v 53.94676 H 573.76051 V 85.583815 q 7.09334,-0.746668 13.25335,-1.120002 6.16002,-0.373334 13.44003,-0.373334 7.46668,-0.186667 17.73336,-0.186667 z m -0.37333,14.186693 q -8.21335,0 -15.30669,0.186667 -7.09335,0 -12.50669,0 v 48.160088 h 27.81338 q 9.52002,-0.18667 14.93336,-2.24 5.60001,-2.05334 8.02668,-7.28002 2.42667,-5.41334 2.42667,-14.93336 0,-9.52002 -2.42667,-14.56003 -2.42667,-5.22667 -8.02668,-7.28001 -5.41334,-2.053335 -14.93336,-2.053335 z"
         style="font-family:'Exo 2';-inkscape-font-specification:'Exo 2, '"
         id="path695" />
      <path
         d="m 712.82742,85.397148 q 13.81335,0 28.00005,0.186667 14.37336,0 27.25338,0.933335 l -0.74667,12.880024 h -51.70676 q -11.20002,0 -11.20002,12.320026 v 28.00005 h 55.62677 V 152.9706 H 704.4274 v 35.28007 q 0,6.53334 2.61334,9.52002 2.8,2.98667 8.58668,2.98667 h 51.70676 l 0.74667,12.69336 q -12.88002,0.74666 -27.25338,0.93333 -14.1867,0.18667 -28.00005,0.18667 -11.38669,0 -18.1067,-5.97335 -6.53335,-6.16001 -6.72002,-16.42669 v -84.37349 q 0.18667,-10.453353 6.72002,-16.426698 6.72001,-5.973344 18.1067,-5.973344 z"
         style="font-family:'Exo 2';-inkscape-font-specification:'Exo 2, '"
         id="path697" />
    </g>
    <path
       style="fill:url(#linearGradient4505);fill-opacity:1;stroke-width:0.0413566"
       d="m 65.572143,67.17936 c -0.09094,-0.06858 -0.370219,-0.31683 -0.620509,-0.551691 -0.250301,-0.234856 -0.575978,-0.526488 -0.723744,-0.648072 -0.868343,-0.714508 -1.260205,-1.044736 -1.592076,-1.341678 -0.20472,-0.183168 -0.55832,-0.490321 -0.785782,-0.682552 -0.227456,-0.192232 -0.497305,-0.42657 -0.599667,-0.520747 -0.102358,-0.09423 -0.409429,-0.357553 -0.68238,-0.585274 -0.993157,-0.828572 -3.231961,-2.748275 -4.156348,-3.563945 -0.661959,-0.584105 -0.992187,-0.862069 -1.426798,-1.200973 -0.159231,-0.124152 0.145956,0.243038 -0.986958,-0.826591 -0.889012,-0.839352 -0.953602,-0.817744 -1.199373,-0.866975 -0.116795,-0.02337 -0.845117,-0.0592 -1.618491,-0.07956 -0.85517,-0.02256 -1.467375,-0.0561 -1.562435,-0.08575 -0.217979,-0.06788 -1.467855,-1.046077 -2.6973,-2.110965 -0.250203,-0.216724 -0.724287,-0.608026 -1.053519,-0.869555 -0.329227,-0.261545 -0.766578,-0.612027 -0.97188,-0.778867 C 44.689576,52.299341 44.24244,51.939952 43.901247,51.667518 43.56006,51.395095 43.045032,50.97727 42.756749,50.739027 42.468461,50.500774 41.878721,50.0413 41.446206,49.717981 c -0.816451,-0.610342 -1.735986,-1.38181 -1.740219,-1.460009 -0.0043,-0.07437 0.891995,-0.918657 1.444483,-1.361124 1.300274,-1.041344 2.808157,-2.304942 3.701977,-3.102237 0.533317,-0.475721 0.803882,-0.68189 0.894871,-0.68189 0.164901,0 0.352302,0.129472 1.032528,0.713329 0.377688,0.32417 0.908091,0.778689 1.178673,1.010034 0.784317,0.670575 2.906144,2.425404 3.71778,3.074729 0.409429,0.327552 1.284127,1.043826 1.943764,1.591715 0.659638,0.547889 1.73905,1.4362 2.398694,1.974013 2.064295,1.683097 2.508238,2.05204 3.019034,2.509053 0.58482,0.523241 1.682876,1.455172 2.295291,1.94803 0.23883,0.192215 0.583124,0.482135 0.765097,0.644279 0.337218,0.300485 0.852914,0.724131 1.923085,1.579819 0.329824,0.263715 0.807425,0.662519 1.06135,0.886216 0.410199,0.361371 0.851562,0.726394 2.314516,1.914189 1.929758,1.566781 2.951704,2.441005 2.951704,2.52502 0,0.03123 -0.03942,0.07796 -0.08765,0.103747 -0.04809,0.02574 -0.255971,0.198591 -0.461731,0.384005 -0.20578,0.185419 -0.505991,0.449974 -0.667161,0.587912 -0.161158,0.137937 -0.877352,0.752081 -1.591537,1.364765 -1.628033,1.396657 -1.611113,1.383033 -1.716001,1.381649 -0.04793,-5.39e-4 -0.161676,-0.0573 -0.252654,-0.12581 z M 48.92244,71.484233 c -0.157744,-0.09673 -0.207875,-0.138686 -1.297772,-1.085401 -0.366606,-0.318445 -1.083831,-0.927823 -1.593829,-1.354177 -0.509998,-0.42635 -1.291483,-1.096327 -1.736621,-1.488836 -0.445147,-0.392514 -1.22403,-1.057958 -1.730846,-1.478755 -1.800495,-1.494932 -2.32331,-1.93392 -2.960244,-2.485611 -0.227462,-0.197014 -0.571756,-0.492868 -0.765103,-0.657457 -0.19334,-0.164578 -0.617703,-0.548298 -0.94303,-0.852704 -0.667258,-0.624343 -0.726464,-0.649352 -1.066337,-0.450168 -0.214672,0.125809 -0.266122,0.110952 -0.529331,-0.152844 -0.11113,-0.111362 -0.371679,-0.345291 -0.578994,-0.519837 -0.207321,-0.174541 -0.386246,-0.327455 -0.397619,-0.339814 -0.01136,-0.01239 -0.123037,-0.105863 -0.248141,-0.207784 C 34.949468,60.308913 34.478454,59.904185 34.027871,59.51144 33.291159,58.869298 31.343948,57.225314 30.408669,56.455833 30.211255,56.29342 29.574211,55.7444 28.993013,55.235802 28.411816,54.727204 27.714685,54.124984 27.443833,53.897522 27.172982,53.67006 26.871519,53.411795 26.773916,53.323601 L 26.596455,53.16325 v -4.938625 -4.938636 l 0.196444,-0.210611 c 0.280025,-0.300222 0.910452,-0.841374 1.747319,-1.499886 0.656263,-0.516396 1.962586,-1.605523 2.43783,-2.032503 0.103575,-0.09304 0.532611,-0.44607 0.953419,-0.784462 0.420803,-0.338398 1.053558,-0.857217 1.406124,-1.152958 0.352566,-0.295731 0.929492,-0.77659 1.282058,-1.068577 1.285888,-1.06492 1.491098,-1.235821 2.791574,-2.324711 0.727879,-0.609458 1.6491,-1.378718 2.047155,-1.709469 1.242779,-1.032646 1.183002,-0.991918 1.336751,-0.910681 0.169231,0.08944 0.833964,0.601876 1.24804,0.962143 0.227462,0.197913 0.874687,0.735548 1.438273,1.194758 0.563587,0.459205 1.121905,0.915378 1.240703,1.013701 0.118798,0.09833 0.448623,0.358873 0.732953,0.578978 0.284324,0.220133 0.684819,0.549117 0.889986,0.731084 0.205161,0.181973 0.428487,0.374694 0.496276,0.428272 l 0.123255,0.09743 -0.268818,0.246294 c -0.239648,0.219556 -0.812767,0.705665 -2.522761,2.139717 -0.284324,0.238431 -0.768436,0.648603 -1.075803,0.911462 -0.51386,0.439468 -1.274008,1.072735 -3.924617,3.269524 -0.53518,0.44355 -1.599438,1.327537 -2.365019,1.964433 -0.765577,0.636891 -1.593794,1.31618 -1.840476,1.50952 -1.036179,0.812116 -2.387944,1.979884 -2.437569,2.105763 -0.01815,0.0461 0.08949,0.175732 0.363326,0.437675 0.482657,0.461671 1.083128,1.006555 1.437272,1.30423 0.576775,0.4848 2.189035,1.898038 2.357329,2.066337 0.01136,0.01136 0.141648,0.122434 0.289499,0.246795 0.147852,0.124361 0.704174,0.608241 1.236268,1.075271 0.5321,0.467035 1.15123,1.001067 1.375837,1.186739 0.224613,0.185667 0.542983,0.457837 0.707491,0.604811 0.399876,0.357273 1.263313,1.111648 2.140202,1.869858 0.394598,0.341192 0.821642,0.713409 0.948987,0.82714 0.209787,0.187358 0.552881,0.480676 1.144942,0.978832 0.117102,0.09853 0.591671,0.505512 1.054591,0.904391 0.462926,0.39889 1.037095,0.885248 1.275931,1.080813 0.238827,0.19557 0.638961,0.535971 0.889159,0.756475 0.250214,0.220493 0.659972,0.573145 0.910574,0.783654 0.250607,0.210531 0.669347,0.583685 0.930526,0.829246 0.261184,0.245567 0.688891,0.628226 0.950484,0.850367 0.544852,0.462689 1.614247,1.390081 2.494814,2.163515 0.332437,0.291987 0.679424,0.585226 0.771107,0.651626 0.09164,0.06638 0.165456,0.134587 0.163992,0.151508 -0.0022,0.01686 -0.136414,0.117323 -0.299845,0.223126 -0.296549,0.191973 -0.9282,0.714826 -1.519445,1.257702 -0.171849,0.157803 -0.653984,0.575364 -1.07141,0.927935 -0.417426,0.352561 -0.863054,0.729151 -0.990281,0.83685 -0.370563,0.313707 -0.989316,0.817437 -1.003803,0.817205 -0.007,0 -0.08135,-0.042 -0.164659,-0.09304 z m 18.303973,-24.17883 c -0.299926,-0.180696 -0.459943,-0.302629 -0.971885,-0.740594 -0.704066,-0.602323 -1.40866,-1.185797 -2.25257,-1.865344 -0.749862,-0.60381 -1.469982,-1.272796 -1.46925,-1.364927 0,-0.01966 0.06978,-0.08225 0.1546,-0.139154 0.165919,-0.111168 0.653552,-0.510446 2.119727,-1.735663 2.358713,-1.971062 2.83885,-2.374099 3.450349,-2.896279 2.760592,-2.357426 3.639862,-3.102361 4.490143,-3.804079 0.534528,-0.441142 1.156157,-0.961421 1.381384,-1.156168 0.225243,-0.194751 0.720157,-0.614633 1.0998,-0.933084 0.379665,-0.31844 1.023825,-0.871692 1.431456,-1.229423 0.914844,-0.802853 1.753137,-1.477769 1.836668,-1.478717 0.123026,-0.0022 0.718224,0.465603 1.736244,1.36231 0.23883,0.210374 0.683731,0.580642 0.988644,0.822805 0.304928,0.24218 0.784516,0.639567 1.065755,0.883115 0.281238,0.243542 0.641242,0.549671 0.800015,0.680295 0.158778,0.130619 0.287695,0.247732 0.286478,0.260264 -0.0011,0.01249 -0.102589,0.09723 -0.225275,0.188187 -0.122676,0.09094 -0.526466,0.416521 -0.897289,0.723404 -0.649567,0.537555 -1.054586,0.880842 -2.513296,2.130212 -0.371808,0.31844 -0.901069,0.76387 -1.176136,0.989829 -0.792761,0.651248 -1.467128,1.216789 -1.80286,1.511928 -0.283592,0.249325 -0.556823,0.477713 -1.633596,1.365545 -0.204709,0.168795 -0.624171,0.530861 -0.932131,0.804587 -0.307971,0.273743 -0.781619,0.683802 -1.052556,0.911264 -0.270942,0.227461 -0.77269,0.652567 -1.115013,0.944662 -0.342319,0.292106 -0.882937,0.742129 -1.201383,1.000044 -0.31845,0.257926 -0.681351,0.563582 -0.80645,0.679241 -0.125104,0.115653 -0.590368,0.521711 -1.033917,0.902356 -0.443556,0.380639 -0.952191,0.8363 -1.130319,1.012581 -0.178128,0.176291 -0.336308,0.32047 -0.351532,0.320421 -0.01519,0 -0.139338,-0.06739 -0.275805,-0.149618 z M 55.295007,45.281851 C 55.147156,45.178853 54.930578,45.012293 54.813723,44.911713 54.49712,44.63922 53.771631,44.047835 52.75157,43.230743 52.251157,42.829882 51.553263,42.256069 51.200702,41.955578 50.400757,41.273774 49.791476,40.757173 49.673938,40.661042 l -0.09004,-0.07357 0.09104,-0.127813 c 0.139596,-0.196049 0.321256,-0.366239 0.894978,-0.838552 0.29007,-0.238792 0.760019,-0.63193 1.044349,-0.873636 0.810877,-0.689338 2.025237,-1.711069 2.767242,-2.328265 0.373305,-0.310513 1.089811,-0.919325 1.592238,-1.352918 0.502416,-0.433576 1.350839,-1.139899 1.885371,-1.569592 0.534539,-0.429699 1.130076,-0.922503 1.323417,-1.095132 0.193341,-0.172624 0.683392,-0.592247 1.088998,-0.932481 0.405611,-0.340234 0.82602,-0.693053 0.934253,-0.784037 0.108227,-0.09094 0.558013,-0.456776 0.999516,-0.81288 1.409139,-1.136576 1.546775,-1.255116 1.559554,-1.343224 0.008,-0.0542 -0.02456,-0.109859 -0.08854,-0.151735 -0.199533,-0.130737 -0.606286,-0.535427 -0.606286,-0.603211 0,-0.09653 0.398648,-0.473169 0.890993,-0.84174 0.228464,-0.17103 0.704077,-0.550479 1.056907,-0.843204 0.35283,-0.292726 0.910321,-0.749076 1.238869,-1.0141 0.328554,-0.265034 0.768867,-0.622636 0.978493,-0.794657 0.475355,-0.390133 1.208657,-0.936051 1.257313,-0.936051 0.02084,0 0.03856,2.304355 0.0412,5.386704 0.0032,2.962678 0.01088,5.489055 0.01826,5.61416 0.01357,0.227386 0.01346,0.227526 -0.201187,0.421895 -0.3213,0.29089 -2.394951,2.034824 -4.764003,4.0065 -0.773375,0.643644 -1.582921,1.321112 -1.799015,1.505492 -0.216088,0.184364 -0.783714,0.649578 -1.261374,1.033804 -0.47767,0.384227 -1.183734,0.969661 -1.569038,1.300956 -1.046395,0.899755 -1.760589,1.503413 -2.359848,1.994633 -0.295703,0.242395 -0.635776,0.535433 -0.755732,0.651189 -0.119951,0.115766 -0.231614,0.210272 -0.248146,0.210029 -0.01648,-4.09e-4 -0.151008,-0.08475 -0.298854,-0.187702 z M 16.319323,45.70191 c -0.211222,-0.114684 -0.6424,-0.453421 -1.032695,-0.811314 -0.540861,-0.495932 -1.081061,-0.949972 -2.110412,-1.773806 -0.895926,-0.717055 -1.385448,-1.171208 -1.385448,-1.285365 0,-0.08935 0.500182,-0.558481 1.095952,-1.02794 0.507091,-0.39959 1.046545,-0.843737 1.902406,-1.566291 0.204716,-0.172828 0.735115,-0.610358 1.178665,-0.972273 0.443551,-0.361926 0.99256,-0.817964 1.220022,-1.013432 0.227461,-0.195479 0.664809,-0.557771 0.971882,-0.805109 0.307073,-0.247333 0.865388,-0.71285 1.240699,-1.034462 0.964182,-0.826262 2.568202,-2.165959 3.515317,-2.936048 0.443551,-0.360639 1.065459,-0.880637 1.382018,-1.155543 0.673301,-0.584692 2.192078,-1.865258 3.057373,-2.577828 0.117279,-0.09663 0.247873,-0.175672 0.290209,-0.175758 0.08337,-1.72e-4 0.257671,0.135611 0.95363,0.742996 0.248386,0.216778 0.632172,0.543026 0.852859,0.724988 1.228602,1.01306 1.474965,1.213569 1.667945,1.357457 0.116628,0.08695 0.479076,0.394027 0.805443,0.68238 l 0.593389,0.52428 -0.132989,0.103391 c -0.425267,0.330621 -1.787076,1.440498 -2.268682,1.848995 -0.309897,0.262859 -0.756468,0.638296 -0.992378,0.834314 -0.235911,0.196028 -0.661737,0.551814 -0.946282,0.790644 -0.284544,0.238841 -0.83852,0.694788 -1.231058,1.013244 -0.392538,0.31845 -1.101952,0.898392 -1.576475,1.288784 -0.474524,0.390387 -1.421085,1.169222 -2.10347,1.730746 -0.682385,0.561535 -1.445416,1.201383 -1.695623,1.421887 -0.250208,0.220509 -0.659639,0.56895 -0.909847,0.774311 -0.250208,0.205366 -0.926724,0.762862 -1.50337,1.238896 -0.576647,0.476033 -1.172181,0.964625 -1.323414,1.085771 -0.151231,0.121152 -0.494335,0.400301 -0.762452,0.620353 -0.268118,0.220046 -0.51936,0.404362 -0.558315,0.409591 -0.03896,0.0048 -0.12666,-0.02079 -0.194899,-0.0579 z m 34.52267,-10.985226 c -0.307298,-0.246617 -1.121681,-0.889916 -1.871576,-1.478404 -1.397927,-1.097022 -1.696695,-1.335195 -2.25394,-1.796823 -0.318446,-0.263801 -0.867455,-0.705805 -1.220021,-0.982219 -0.352566,-0.276424 -0.929492,-0.737896 -1.282058,-1.0255 -0.352569,-0.287604 -0.845744,-0.674916 -1.095953,-0.860702 -0.250209,-0.185785 -0.473535,-0.352447 -0.496282,-0.370375 -0.08285,-0.06528 -0.538341,-0.402842 -0.625081,-0.463227 -0.04901,-0.03414 -0.198284,-0.145645 -0.331693,-0.247845 C 41.531975,27.389388 41.372254,27.26842 41.310459,27.22277 40.892586,26.914082 39.038539,25.487914 38.569211,25.11415 38.364496,24.951126 38.065039,24.716747 37.903757,24.593304 37.742474,24.46987 37.38183,24.182764 37.102325,23.955303 36.492264,23.458824 36.250914,23.267879 35.485849,22.676367 35.164447,22.427873 34.61009,21.984112 34.253943,21.690238 33.556318,21.114567 32.358829,20.140816 31.724679,19.633546 29.962722,18.224089 28.55765,17.110044 28.105973,16.76438 27.379016,16.208036 26.89817,15.803097 26.816507,15.678466 c -0.06704,-0.102331 -0.06496,-0.106104 0.217996,-0.39342 0.157132,-0.15956 0.582147,-0.535201 0.944478,-0.834756 0.736989,-0.60931 1.830452,-1.555989 2.416974,-2.092518 0.786942,-0.719877 0.816254,-0.736648 0.998297,-0.571058 0.05663,0.05151 0.428654,0.365908 0.826709,0.698644 0.398061,0.332737 0.88193,0.742128 1.075271,0.909744 0.193346,0.167616 0.602775,0.512461 0.909847,0.766336 0.307077,0.253864 0.699058,0.579323 0.871073,0.72324 0.172016,0.143908 0.608075,0.503587 0.96902,0.799288 0.801717,0.656798 2.016535,1.672336 3.044017,2.544685 0.282117,0.23951 0.801399,0.665961 1.153965,0.947668 1.56927,1.253839 2.116712,1.698579 2.520809,2.047926 l 0.4323,0.373725 0.580938,0.01448 c 0.319517,0.008 1.170786,-0.007 1.891703,-0.03374 0.911662,-0.03354 1.335267,-0.03504 1.391268,-0.005 0.09957,0.05331 1.006292,0.804239 1.583395,1.31137 0.236078,0.207456 0.633951,0.540861 0.88416,0.7409 0.596296,0.476733 1.478086,1.199405 1.943759,1.593005 0.204719,0.173036 0.595677,0.48991 0.868784,0.704164 0.465505,0.365179 1.429076,1.143633 2.392296,1.932688 0.230816,0.189081 0.708126,0.568148 1.060698,0.842381 0.73571,0.572235 1.364916,1.140507 1.364436,1.232298 0,0.03463 -0.132767,0.165279 -0.294632,0.290389 -0.424389,0.327993 -0.9231,0.731617 -1.60744,1.300966 -0.329824,0.27441 -0.953278,0.78695 -1.385449,1.138994 -0.777887,0.633638 -0.962983,0.788054 -1.875652,1.564886 -0.503595,0.428638 -0.826677,0.669471 -0.894478,0.666779 -0.02316,-0.0011 -0.139746,-0.08006 -0.259056,-0.17578 z M 61.06241,26.342435 c -0.07088,-0.06189 -0.246837,-0.205569 -0.390995,-0.3193 -0.255551,-0.201616 -1.007104,-0.846145 -1.589301,-1.362989 -0.15922,-0.141351 -0.555714,-0.488043 -0.881095,-0.770418 -0.325377,-0.282384 -0.718725,-0.625083 -0.874127,-0.761554 -0.366406,-0.321825 -0.961141,-0.824323 -1.222864,-1.033217 -0.236051,-0.188389 -1.168758,-0.979132 -1.775524,-1.505239 -0.226132,-0.196086 -0.534819,-0.458874 -0.685966,-0.583975 -0.606287,-0.50183 -1.049449,-0.875664 -1.839194,-1.551478 -0.454918,-0.389297 -0.957409,-0.807642 -1.116629,-0.929669 -0.159231,-0.122025 -0.298806,-0.23328 -0.310174,-0.247235 -0.01136,-0.01397 -0.127636,-0.111545 -0.258357,-0.21686 -0.268449,-0.216271 -1.395924,-1.278237 -1.395924,-1.314813 0,-0.06469 0.790586,-0.802053 1.509531,-1.40795 0.227462,-0.191694 0.608974,-0.517502 0.847814,-0.724 0.23883,-0.206507 0.713399,-0.605827 1.054592,-0.887383 0.341192,-0.281556 0.746879,-0.624574 0.901527,-0.762272 0.154637,-0.137699 0.312833,-0.261771 0.351521,-0.275736 0.04911,-0.01767 0.151885,0.05101 0.340326,0.227471 0.148471,0.139056 0.595122,0.532216 0.992558,0.873697 0.676494,0.58124 1.159297,0.979601 2.971985,2.452187 1.106887,0.899212 1.810214,1.483337 2.17578,1.807009 0.378857,0.335452 0.859921,0.74083 1.571553,1.324287 0.272951,0.223797 0.868488,0.725217 1.323407,1.114275 0.454923,0.389057 1.106289,0.938822 1.447482,1.221706 0.341203,0.282874 0.862877,0.719597 1.159296,0.970477 0.296409,0.25088 0.608005,0.502678 0.692434,0.559549 0.08445,0.0569 0.15306,0.112692 0.152516,0.124072 -5.39e-4,0.01138 -0.08785,0.08585 -0.194025,0.16542 -0.106159,0.07966 -0.557108,0.46128 -1.002101,0.848151 -0.444988,0.386862 -0.929827,0.795495 -1.077409,0.908067 -0.350811,0.267571 -1.010077,0.816418 -1.881247,1.566142 -0.402434,0.346323 -0.738435,0.604839 -0.785782,0.60457 -0.0455,-2.5e-4 -0.140711,-0.05111 -0.211608,-0.112992 z"
       id="path1120"
       sodipodi:nodetypes="cscsscsssscccsccssccssssssscssssssscsssccccssscsssscscsssssscccssccccssccsscscccccsssccssssscsssssccsssccssssccccssccscsscscsssscsssscsssssssscccccscccscssssscsccsssscscccssscsscccccsscsccsccccssccscssccsscssssscccccscssccsssccscccccccsssccsccsccccssscssccscsccccsscccccsscssscssccssssscscscscssc" />
  </g>
</svg>
