<?xml version="1.0" encoding="UTF-8" standalone="no"?>
<!-- Created with Inkscape (http://www.inkscape.org/) -->

<svg
   width="190.10802mm"
   height="59.891651mm"
   viewBox="0 0 190.10802 59.891651"
   version="1.1"
   id="svg1543"
   inkscape:version="1.2.2 (b0a8486541, 2022-12-01)"
   sodipodi:docname="candidate-1-white.svg"
   xmlns:inkscape="http://www.inkscape.org/namespaces/inkscape"
   xmlns:sodipodi="http://sodipodi.sourceforge.net/DTD/sodipodi-0.dtd"
   xmlns="http://www.w3.org/2000/svg"
   xmlns:svg="http://www.w3.org/2000/svg">
  <sodipodi:namedview
     id="namedview1545"
     pagecolor="#ffffff"
     bordercolor="#666666"
     borderopacity="1.0"
     inkscape:showpageshadow="2"
     inkscape:pageopacity="0.0"
     inkscape:pagecheckerboard="0"
     inkscape:deskcolor="#d1d1d1"
     inkscape:document-units="mm"
     showgrid="false"
     inkscape:zoom="0.77593294"
     inkscape:cx="389.20889"
     inkscape:cy="-101.81292"
     inkscape:window-width="944"
     inkscape:window-height="1041"
     inkscape:window-x="10"
     inkscape:window-y="29"
     inkscape:window-maximized="0"
     inkscape:current-layer="layer1" />
  <defs
     id="defs1540">
    <rect
       x="340.61371"
       y="35.650299"
       width="733.64398"
       height="250.17654"
       id="rect5539" />
  </defs>
  <g
     inkscape:label="Layer 1"
     inkscape:groupmode="layer"
     id="layer1"
     transform="translate(-2.106156,-66.5536)">
    <text
       xml:space="preserve"
       transform="matrix(0.26458333,0,0,0.26458333,-11.007209,57.13383)"
       id="text5537"
       style="font-style:normal;font-weight:normal;font-size:186.667px;line-height:1.25;font-family:sans-serif;white-space:pre;shape-inside:url(#rect5539);display:inline;fill:#ffffff;fill-opacity:1;stroke:none"><tspan
         x="340.61328"
         y="214.38405"
         id="tspan1905"><tspan
           style="font-family:'Exo 2';-inkscape-font-specification:'Exo 2, '"
           id="tspan1903">LURE</tspan></tspan></text>
    <path
       style="fill:#ffffff;fill-opacity:1;stroke-width:0.0413566"
       d="m 57.475038,123.10563 c -0.09094,-0.0686 -0.370219,-0.31683 -0.620509,-0.55169 -0.250301,-0.23485 -0.575978,-0.52648 -0.723744,-0.64807 -0.868343,-0.71451 -1.260205,-1.04473 -1.592076,-1.34168 -0.20472,-0.18316 -0.55832,-0.49032 -0.785782,-0.68255 -0.227456,-0.19223 -0.497305,-0.42657 -0.599667,-0.52074 -0.102358,-0.0942 -0.409429,-0.35756 -0.68238,-0.58528 -0.993157,-0.82857 -3.231961,-2.74827 -4.156348,-3.56394 -0.661959,-0.58411 -0.992187,-0.86207 -1.426798,-1.20098 -0.159231,-0.12415 -0.603357,-0.49612 -0.986958,-0.82659 -0.926304,-0.798 -0.953602,-0.81774 -1.199373,-0.86697 -0.116795,-0.0234 -0.845117,-0.0592 -1.618491,-0.0796 -0.85517,-0.0226 -1.467375,-0.0561 -1.562435,-0.0857 -0.217979,-0.0679 -1.467855,-1.04608 -2.6973,-2.11097 -0.250203,-0.21672 -0.724287,-0.60802 -1.053519,-0.86955 -0.329227,-0.26155 -0.766578,-0.61203 -0.97188,-0.77887 -0.205307,-0.16682 -0.652443,-0.52621 -0.993636,-0.79865 -0.341187,-0.27242 -0.856215,-0.69024 -1.144498,-0.92849 -0.288288,-0.23825 -0.878029,-0.69772 -1.310544,-1.02104 -0.816452,-0.61035 -1.735987,-1.38181 -1.74022,-1.46001 -0.0043,-0.0744 0.891995,-0.91866 1.444484,-1.36113 1.300275,-1.04134 2.808158,-2.30494 3.701978,-3.102234 0.533317,-0.475721 0.803882,-0.68189 0.894871,-0.68189 0.164901,0 0.352302,0.129472 1.032528,0.713329 0.377688,0.324175 0.908091,0.778685 1.178673,1.010035 0.784317,0.67057 2.906144,2.4254 3.71778,3.07473 0.409429,0.32755 1.284127,1.04382 1.943764,1.59171 0.659638,0.54789 1.73905,1.4362 2.398694,1.97402 2.064295,1.68309 2.508238,2.05204 3.019034,2.50905 0.58482,0.52324 1.682876,1.45517 2.295291,1.94803 0.23883,0.19221 0.583124,0.48213 0.765097,0.64428 0.337218,0.30048 0.852914,0.72413 1.923085,1.57982 0.329824,0.26371 0.807425,0.66252 1.06135,0.88621 0.410199,0.36137 0.851562,0.7264 2.314516,1.91419 1.929758,1.56678 2.951704,2.44101 2.951704,2.52502 0,0.0312 -0.03942,0.078 -0.08765,0.10375 -0.04809,0.0257 -0.255971,0.19859 -0.461731,0.384 -0.20578,0.18542 -0.505991,0.44998 -0.667161,0.58792 -0.161158,0.13793 -0.877352,0.75208 -1.591537,1.36476 -1.628033,1.39666 -1.611113,1.38303 -1.716001,1.38165 -0.04793,-5.4e-4 -0.161676,-0.0573 -0.252654,-0.12581 z m -18.237203,3.24654 c -0.157744,-0.0967 -0.207875,-0.13868 -1.297772,-1.0854 -0.366606,-0.31844 -1.083831,-0.92782 -1.593829,-1.35417 -0.509998,-0.42635 -1.291483,-1.09633 -1.736621,-1.48884 -0.445148,-0.39251 -1.224031,-1.05796 -1.730847,-1.47875 -1.800496,-1.49494 -2.323312,-1.93392 -2.960246,-2.48562 -0.227462,-0.19701 -0.571756,-0.49286 -0.765103,-0.65745 -0.193341,-0.16458 -0.617704,-0.5483 -0.943031,-0.85271 -0.667258,-0.62434 -0.726464,-0.64935 -1.066338,-0.45016 -0.214672,0.1258 -0.266122,0.11095 -0.529331,-0.15285 -0.11113,-0.11136 -0.371679,-0.34529 -0.578994,-0.51984 -0.207321,-0.17454 -0.386246,-0.32745 -0.397619,-0.33981 -0.01136,-0.0124 -0.123037,-0.10586 -0.248141,-0.20778 -0.125106,-0.10194 -0.59612,-0.50666 -1.046703,-0.89941 -0.736713,-0.64214 -2.683925,-2.28612 -3.619204,-3.05561 -0.197415,-0.16241 -0.834459,-0.71143 -1.415657,-1.22003 -0.581198,-0.50859 -1.278329,-1.11081 -1.549181,-1.33828 -0.270851,-0.22746 -0.572314,-0.48572 -0.669917,-0.57392 l -0.177461,-0.16035 v -4.93862 -4.938639 l 0.196444,-0.210611 c 0.280025,-0.300222 0.910452,-0.841374 1.747319,-1.499886 0.656264,-0.516396 1.962588,-1.605523 2.437832,-2.032503 0.103575,-0.09304 0.532611,-0.44607 0.95342,-0.784462 0.420803,-0.338398 1.053558,-0.857217 1.406124,-1.152958 0.352567,-0.295731 0.929493,-0.77659 1.282059,-1.068577 1.285889,-1.06492 1.491099,-1.235821 2.791576,-2.324711 0.727879,-0.609458 1.649101,-1.378718 2.047156,-1.709469 1.24278,-1.032646 1.183003,-0.991918 1.336752,-0.910681 0.169231,0.08944 0.833964,0.601876 1.24804,0.962143 0.227462,0.197913 0.874688,0.735548 1.438274,1.194758 0.563588,0.459205 1.121906,0.915378 1.240704,1.013701 0.118798,0.09833 0.448623,0.358873 0.732953,0.578978 0.284324,0.220133 0.684819,0.549117 0.889986,0.731084 0.205161,0.181973 0.428487,0.374694 0.496276,0.428272 l 0.123255,0.09743 -0.268818,0.246294 c -0.239648,0.219556 -0.812767,0.705665 -2.522761,2.139717 -0.284325,0.238431 -0.768437,0.648603 -1.075804,0.911462 -0.51386,0.439468 -1.274009,1.072735 -3.924619,3.269524 -0.535181,0.44355 -1.599439,1.327537 -2.365021,1.964433 -0.765577,0.636891 -1.593794,1.316181 -1.840477,1.509521 -1.036179,0.81212 -2.387945,1.97988 -2.43757,2.10576 -0.01815,0.0461 0.08949,0.17573 0.363326,0.43768 0.482657,0.46167 1.083129,1.00655 1.437273,1.30423 0.576775,0.4848 2.189036,1.89804 2.35733,2.06633 0.01136,0.0114 0.141648,0.12244 0.289499,0.2468 0.147852,0.12436 0.704175,0.60824 1.236269,1.07527 0.532101,0.46704 1.151231,1.00107 1.375838,1.18674 0.224613,0.18567 0.542983,0.45784 0.707491,0.60481 0.399877,0.35727 1.263314,1.11165 2.140203,1.86986 0.394599,0.34119 0.821643,0.71341 0.948988,0.82714 0.209787,0.18736 0.552881,0.48067 1.144943,0.97883 0.117102,0.0985 0.591671,0.50551 1.054591,0.90439 0.462926,0.39889 1.037095,0.88525 1.275931,1.08081 0.238827,0.19557 0.638961,0.53597 0.889159,0.75648 0.250214,0.22049 0.659972,0.57314 0.910574,0.78365 0.250607,0.21053 0.669347,0.58369 0.930526,0.82925 0.261184,0.24557 0.688891,0.62822 0.950484,0.85037 0.544852,0.46268 1.614247,1.39008 2.494814,2.16351 0.332437,0.29199 0.679424,0.58523 0.771107,0.65163 0.09164,0.0664 0.165456,0.13458 0.163992,0.15151 -0.0022,0.0168 -0.136414,0.11732 -0.299845,0.22312 -0.296549,0.19197 -0.9282,0.71483 -1.519445,1.2577 -0.171849,0.15781 -0.653984,0.57537 -1.07141,0.92794 -0.417426,0.35256 -0.863054,0.72915 -0.990281,0.83685 -0.370563,0.3137 -0.989316,0.81743 -1.003803,0.8172 -0.007,0 -0.08135,-0.042 -0.164659,-0.093 z m 19.891473,-23.12049 c -0.299926,-0.1807 -0.459943,-0.30263 -0.971885,-0.7406 -0.704066,-0.60232 -1.40866,-1.18579 -2.25257,-1.86534 -0.749862,-0.60381 -1.469982,-1.272796 -1.46925,-1.364927 0,-0.01966 0.06978,-0.08225 0.1546,-0.139154 0.165919,-0.111168 0.653552,-0.510446 2.119727,-1.735663 2.358713,-1.971062 2.83885,-2.374099 3.450349,-2.896279 2.760592,-2.357426 3.639862,-3.102361 4.490143,-3.804079 0.534528,-0.441142 1.156157,-0.961421 1.381384,-1.156168 0.225243,-0.194751 0.720157,-0.614633 1.0998,-0.933084 0.379665,-0.31844 1.023825,-0.871692 1.431456,-1.229423 0.914844,-0.802853 1.753137,-1.477769 1.836668,-1.478717 0.123026,-0.0022 0.718224,0.465603 1.736244,1.36231 0.23883,0.210374 0.683731,0.580642 0.988644,0.822805 0.304928,0.24218 0.784516,0.639567 1.065755,0.883115 0.281238,0.243542 0.641242,0.549671 0.800015,0.680295 0.158778,0.130619 0.287695,0.247732 0.286478,0.260264 -0.0011,0.01249 -0.102589,0.09723 -0.225275,0.188187 -0.122676,0.09094 -0.526466,0.416521 -0.897289,0.723404 -0.649567,0.537555 -1.054586,0.880842 -2.513296,2.130212 -0.371808,0.31844 -0.901069,0.76387 -1.176136,0.989829 -0.792761,0.651248 -1.467128,1.216789 -1.80286,1.511928 -0.283592,0.249325 -0.556823,0.477713 -1.633596,1.365545 -0.204709,0.168795 -0.624171,0.530861 -0.932131,0.804587 -0.307971,0.273743 -0.781619,0.683802 -1.052556,0.911264 -0.270942,0.227461 -0.77269,0.652567 -1.115013,0.944662 -0.342319,0.292106 -0.882937,0.742127 -1.201383,1.000047 -0.31845,0.25792 -0.681351,0.56358 -0.80645,0.67924 -0.125104,0.11565 -0.590368,0.52171 -1.033917,0.90235 -0.443556,0.38064 -0.952191,0.8363 -1.130319,1.01258 -0.178128,0.1763 -0.336308,0.32047 -0.351532,0.32043 -0.01519,0 -0.139338,-0.0674 -0.275805,-0.14962 z m -11.931406,-2.02355 c -0.147851,-0.103 -0.364429,-0.26956 -0.481284,-0.37014 -0.316603,-0.27249 -1.042092,-0.86388 -2.062153,-1.680972 -0.500413,-0.400861 -1.198307,-0.974674 -1.550868,-1.275165 -0.799945,-0.681804 -1.409226,-1.198405 -1.526764,-1.294536 l -0.09004,-0.07357 0.09104,-0.127813 c 0.139596,-0.196049 0.321256,-0.366239 0.894978,-0.838552 0.29007,-0.238792 0.760019,-0.63193 1.044349,-0.873636 0.810877,-0.689338 2.025237,-1.711069 2.767242,-2.328265 0.373305,-0.310513 1.089811,-0.919325 1.592238,-1.352918 0.502416,-0.433576 1.350839,-1.139899 1.885371,-1.569592 0.534539,-0.429699 1.130076,-0.922503 1.323417,-1.095132 0.193341,-0.172624 0.683392,-0.592247 1.088998,-0.932481 0.405611,-0.340234 0.82602,-0.693053 0.934253,-0.784037 0.108227,-0.09094 0.558013,-0.456776 0.999516,-0.81288 1.409139,-1.136576 1.546775,-1.255116 1.559554,-1.343224 0.008,-0.0542 -0.02456,-0.109859 -0.08854,-0.151735 -0.199533,-0.130737 -0.606286,-0.535427 -0.606286,-0.603211 0,-0.09653 0.398648,-0.473169 0.890993,-0.84174 0.228464,-0.17103 0.704077,-0.550479 1.056907,-0.843204 0.35283,-0.292726 0.910321,-0.749076 1.238869,-1.0141 0.328554,-0.265034 0.768867,-0.622636 0.978493,-0.794657 0.475355,-0.390133 1.208657,-0.936051 1.257313,-0.936051 0.02084,0 0.03856,2.304355 0.0412,5.386704 0.0032,2.962678 0.01088,5.489055 0.01826,5.61416 0.01357,0.227386 0.01346,0.227526 -0.201187,0.421895 -0.3213,0.29089 -2.394951,2.034824 -4.764003,4.0065 -0.773375,0.643644 -1.582921,1.321112 -1.799015,1.505492 -0.216088,0.184364 -0.783714,0.649578 -1.261374,1.033804 -0.47767,0.384227 -1.183734,0.969661 -1.569038,1.300956 -1.046395,0.899755 -1.760589,1.50341 -2.359848,1.99463 -0.295703,0.2424 -0.635776,0.53544 -0.755732,0.65119 -0.119951,0.11577 -0.231614,0.21027 -0.248146,0.21003 -0.01648,-4.1e-4 -0.151008,-0.0847 -0.298854,-0.1877 z M 6.6347082,100.56985 C 6.4234862,100.45517 5.9923085,100.11643 5.6020138,99.758538 5.0611531,99.262606 4.5209534,98.808566 3.491603,97.984732 2.5956777,97.267677 2.106156,96.813524 2.106156,96.699367 c 0,-0.08935 0.5001817,-0.558481 1.0959514,-1.02794 0.5070907,-0.39959 1.0465444,-0.843737 1.9024047,-1.566291 0.2047161,-0.172828 0.7351148,-0.610358 1.1786644,-0.972273 0.4435507,-0.361926 0.9925594,-0.817964 1.2200211,-1.013432 0.227461,-0.195479 0.6648087,-0.557771 0.9718818,-0.805109 0.3070726,-0.247333 0.8653873,-0.71285 1.240698,-1.034462 0.9641816,-0.826262 2.5682016,-2.165959 3.5153166,-2.936048 0.443551,-0.360639 1.065459,-0.880637 1.382018,-1.155543 0.673301,-0.584692 2.192079,-1.865258 3.057375,-2.577828 0.117279,-0.09663 0.247873,-0.175672 0.290209,-0.175758 0.08337,-1.72e-4 0.257671,0.135611 0.95363,0.742996 0.248387,0.216778 0.632173,0.543026 0.85286,0.724988 1.228603,1.01306 1.474966,1.213569 1.667946,1.357457 0.116628,0.08695 0.479076,0.394027 0.805444,0.68238 l 0.593389,0.52428 -0.132989,0.103391 c -0.425267,0.330621 -1.787077,1.440498 -2.268684,1.848995 -0.309897,0.262859 -0.756468,0.638296 -0.992378,0.834314 -0.235911,0.196028 -0.661738,0.551814 -0.946282,0.790644 -0.284545,0.238841 -0.838521,0.694788 -1.231059,1.013244 -0.392539,0.31845 -1.101953,0.898392 -1.576476,1.288784 -0.474525,0.390387 -1.421086,1.169222 -2.103471,1.730746 -0.682385,0.561535 -1.445416,1.201383 -1.695623,1.421887 -0.250208,0.220509 -0.659639,0.56895 -0.909847,0.774311 -0.250208,0.205366 -0.926724,0.762862 -1.5033692,1.238896 -0.5766468,0.476033 -1.1721805,0.964625 -1.3234135,1.085771 -0.151231,0.121152 -0.4943347,0.400301 -0.7624513,0.620353 -0.2681181,0.22005 -0.5193597,0.40436 -0.5583147,0.40959 -0.03896,0.005 -0.1266601,-0.0208 -0.1948991,-0.0579 z M 41.157388,89.584626 C 40.85009,89.338009 40.035707,88.69471 39.285812,88.106222 37.887885,87.0092 37.589117,86.771027 37.031872,86.309399 36.713426,86.045598 36.164417,85.603594 35.811851,85.32718 c -0.352566,-0.276424 -0.929492,-0.737896 -1.282058,-1.0255 -0.35257,-0.287604 -0.845745,-0.674916 -1.095954,-0.860702 -0.250209,-0.185785 -0.473535,-0.352447 -0.496282,-0.370375 -0.08285,-0.06528 -0.538342,-0.402842 -0.625082,-0.463227 -0.04901,-0.03414 -0.198284,-0.145645 -0.331693,-0.247845 -0.133414,-0.102201 -0.293135,-0.223169 -0.35493,-0.268819 -0.417873,-0.308688 -2.271921,-1.734856 -2.74125,-2.10862 -0.204715,-0.163024 -0.504172,-0.397403 -0.665454,-0.520846 -0.161283,-0.123434 -0.521927,-0.41054 -0.801433,-0.638001 -0.610061,-0.496479 -0.851411,-0.687424 -1.616476,-1.278936 -0.321402,-0.248494 -0.87576,-0.692255 -1.231907,-0.986129 -0.697625,-0.575671 -1.895115,-1.549422 -2.529266,-2.056692 -1.761958,-1.409457 -3.167031,-2.523502 -3.618708,-2.869166 -0.726957,-0.556344 -1.207803,-0.961283 -1.289466,-1.085914 -0.06704,-0.102331 -0.06496,-0.106104 0.217996,-0.39342 0.157132,-0.15956 0.582147,-0.535201 0.944478,-0.834756 0.73699,-0.60931 1.830453,-1.555989 2.416976,-2.092518 0.786942,-0.719877 0.816254,-0.736648 0.998297,-0.571058 0.05663,0.05151 0.428654,0.365908 0.82671,0.698644 0.398061,0.332737 0.88193,0.742128 1.075271,0.909744 0.193347,0.167616 0.602776,0.512461 0.909848,0.766336 0.307077,0.253864 0.699058,0.579323 0.871074,0.72324 0.172016,0.143908 0.608075,0.503587 0.96902,0.799288 0.801717,0.656798 2.016536,1.672336 3.044019,2.544685 0.282117,0.23951 0.801399,0.665961 1.153965,0.947668 1.569271,1.253839 2.116713,1.698579 2.520811,2.047926 l 0.4323,0.373725 0.580938,0.01448 c 0.319518,0.008 1.170787,-0.007 1.891704,-0.03374 0.911662,-0.03354 1.335267,-0.03504 1.391268,-0.005 0.09957,0.05331 1.006292,0.804239 1.583395,1.31137 0.236078,0.207456 0.633951,0.540861 0.88416,0.7409 0.596296,0.476733 1.478086,1.199405 1.943759,1.593005 0.204719,0.173036 0.595677,0.48991 0.868784,0.704164 0.465505,0.365179 1.429076,1.143633 2.392296,1.932688 0.230816,0.189081 0.708126,0.568148 1.060698,0.842381 0.73571,0.572235 1.364916,1.140507 1.364436,1.232298 0,0.03463 -0.132767,0.165279 -0.294632,0.290389 -0.424389,0.327993 -0.9231,0.731617 -1.60744,1.300966 -0.329824,0.27441 -0.953278,0.78695 -1.385449,1.138994 -0.777887,0.633638 -0.962983,0.788054 -1.875652,1.564886 -0.503595,0.428638 -0.826677,0.669471 -0.894478,0.666779 -0.02316,-0.0011 -0.139746,-0.08006 -0.259056,-0.17578 z m 10.220417,-8.374249 c -0.07088,-0.06189 -0.246837,-0.205569 -0.390995,-0.3193 C 50.731259,80.689461 49.979706,80.044932 49.397509,79.528088 49.238289,79.386737 48.841795,79.040045 48.516414,78.75767 48.191037,78.475286 47.797689,78.132587 47.642287,77.996116 47.275881,77.674291 46.681146,77.171793 46.419423,76.962899 46.183372,76.77451 45.250665,75.983767 44.643899,75.45766 44.417767,75.261574 44.10908,74.998786 43.957933,74.873685 43.351646,74.371855 42.908484,73.998021 42.118739,73.322207 41.663821,72.93291 41.16133,72.514565 41.00211,72.392538 c -0.159231,-0.122025 -0.298806,-0.23328 -0.310174,-0.247235 -0.01136,-0.01397 -0.127636,-0.111545 -0.258357,-0.21686 -0.268449,-0.216271 -1.395924,-1.278237 -1.395924,-1.314813 0,-0.06469 0.790586,-0.802053 1.509531,-1.40795 0.227462,-0.191694 0.608974,-0.517502 0.847814,-0.724 0.23883,-0.206507 0.713399,-0.605827 1.054592,-0.887383 0.341192,-0.281556 0.746879,-0.624574 0.901527,-0.762272 0.154637,-0.137699 0.312833,-0.261771 0.351521,-0.275736 0.04911,-0.01767 0.151885,0.05101 0.340326,0.227471 0.148471,0.139056 0.595122,0.532216 0.992558,0.873697 0.676494,0.58124 1.159297,0.979601 2.971985,2.452187 1.106887,0.899212 1.810214,1.483337 2.17578,1.807009 0.378857,0.335452 0.859921,0.74083 1.571553,1.324287 0.272951,0.223797 0.868488,0.725217 1.323407,1.114275 0.454923,0.389057 1.106289,0.938822 1.447482,1.221706 0.341203,0.282874 0.862877,0.719597 1.159296,0.970477 0.296409,0.25088 0.608005,0.502678 0.692434,0.559549 0.08445,0.0569 0.15306,0.112692 0.152516,0.124072 -5.39e-4,0.01138 -0.08785,0.08585 -0.194025,0.16542 -0.106159,0.07966 -0.557108,0.46128 -1.002101,0.848151 -0.444988,0.386862 -0.929827,0.795495 -1.077409,0.908067 -0.350811,0.267571 -1.010077,0.816418 -1.881247,1.566142 -0.402434,0.346323 -0.738435,0.604839 -0.785782,0.60457 -0.0455,-2.5e-4 -0.140711,-0.05111 -0.211608,-0.112992 z"
       id="path1120"
       sodipodi:nodetypes="cscsscsssscccsccssccssssssscssssssscsssccccssscsssscscsssssscccssccccssccsscscccccsssccssssscsssssccsssccssssccccssccscsscscsssscsssscsssssssscccccscccscssssscsccsssscscccssscsscccccsscsccsccccssccscssccsscssssscccccscssccsssccscccccccsssccsccsccccssscssccscsccccsscccccsscssscssccssssscscscscssc" />
  </g>
</svg>
