<?xml version="1.0" encoding="UTF-8" standalone="no"?>
<!-- Created with Inkscape (http://www.inkscape.org/) -->

<svg
   width="132.07434mm"
   height="110.50283mm"
   viewBox="0 0 132.07433 110.50283"
   version="1.1"
   id="svg1104"
   xml:space="preserve"
   inkscape:version="1.2.2 (b0a8486541, 2022-12-01)"
   sodipodi:docname="candidate-1.svg"
   inkscape:export-filename="candidate-1.png"
   inkscape:export-xdpi="96"
   inkscape:export-ydpi="96"
   xmlns:inkscape="http://www.inkscape.org/namespaces/inkscape"
   xmlns:sodipodi="http://sodipodi.sourceforge.net/DTD/sodipodi-0.dtd"
   xmlns:xlink="http://www.w3.org/1999/xlink"
   xmlns="http://www.w3.org/2000/svg"
   xmlns:svg="http://www.w3.org/2000/svg"><sodipodi:namedview
     id="namedview1106"
     pagecolor="#ffffff"
     bordercolor="#666666"
     borderopacity="1.0"
     inkscape:showpageshadow="2"
     inkscape:pageopacity="0.0"
     inkscape:pagecheckerboard="0"
     inkscape:deskcolor="#d1d1d1"
     inkscape:document-units="mm"
     showgrid="false"
     inkscape:zoom="1.078437"
     inkscape:cx="66.299654"
     inkscape:cy="178.49907"
     inkscape:window-width="946"
     inkscape:window-height="510"
     inkscape:window-x="964"
     inkscape:window-y="29"
     inkscape:window-maximized="0"
     inkscape:current-layer="layer1" /><defs
     id="defs1101"><linearGradient
       inkscape:collect="always"
       id="linearGradient4503"><stop
         style="stop-color:#00ffba;stop-opacity:1;"
         offset="0"
         id="stop4499" /><stop
         style="stop-color:#0075d2;stop-opacity:1;"
         offset="1"
         id="stop4501" /></linearGradient><linearGradient
       inkscape:collect="always"
       xlink:href="#linearGradient4503"
       id="linearGradient4505-3"
       x1="32.888313"
       y1="116.9584"
       x2="172.96964"
       y2="116.9584"
       gradientUnits="userSpaceOnUse"
       gradientTransform="matrix(1.0087906,0,0,1.0087906,1.8107839,8.1560316)" /></defs><g
     inkscape:label="Layer 1"
     inkscape:groupmode="layer"
     id="layer1"
     transform="translate(-34.988216,-70.701113)"><path
       style="fill:url(#linearGradient4505-3);fill-opacity:1;stroke-width:0.0763048"
       d="m 134.21733,173.08957 c -0.16771,-0.12657 -0.68307,-0.58457 -1.14487,-1.01789 -0.46181,-0.43333 -1.06271,-0.9714 -1.33533,-1.19572 -1.60215,-1.31831 -2.32515,-1.9276 -2.93746,-2.47546 -0.37772,-0.33796 -1.03013,-0.90467 -1.4498,-1.25934 -0.41968,-0.35469 -0.91756,-0.78704 -1.10642,-0.96081 -0.18886,-0.1738 -0.75542,-0.65969 -1.25902,-1.07985 -1.83241,-1.52877 -5.96312,-5.0707 -7.66866,-6.57565 -1.22135,-1.07769 -1.83062,-1.59056 -2.63249,-2.21585 -0.29381,-0.22906 0.26928,0.44842 -1.82099,-1.52509 -1.64027,-1.54866 -1.75944,-1.50879 -2.21289,-1.59962 -0.21551,-0.0432 -1.55929,-0.10923 -2.98621,-0.14687 -1.57783,-0.0417 -2.70737,-0.1035 -2.88276,-0.15812 -0.40218,-0.12528 -2.70827,-1.93006 -4.976643,-3.89482 -0.461631,-0.39987 -1.336349,-1.12184 -1.943793,-1.60437 -0.607445,-0.48256 -1.414376,-1.12923 -1.793164,-1.43704 -0.378806,-0.30781 -1.203782,-0.9709 -1.833312,-1.47354 -0.629493,-0.50265 -1.579747,-1.27355 -2.111637,-1.71311 -0.531908,-0.4396 -1.620006,-1.28734 -2.418025,-1.88388 -1.506388,-1.12611 -3.202964,-2.54951 -3.210786,-2.69379 -0.0074,-0.13727 1.645781,-1.69497 2.66515,-2.51133 2.399059,-1.92134 5.181167,-4.25272 6.830306,-5.72378 0.984,-0.87772 1.483214,-1.25811 1.651077,-1.25811 0.304266,0 0.650028,0.23887 1.905065,1.31612 0.696862,0.59811 1.675472,1.43672 2.174722,1.86355 1.44709,1.23726 5.36196,4.475 6.85948,5.67302 0.7554,0.60435 2.36926,1.92592 3.58632,2.9368 1.21707,1.01088 3.20863,2.64986 4.4257,3.64214 3.80873,3.1054 4.62782,3.78611 5.57027,4.62931 1.07902,0.96541 3.10497,2.68488 4.23491,3.59421 0.44065,0.35465 1.07589,0.88957 1.41165,1.18873 0.62217,0.55441 1.57366,1.33605 3.54817,2.91484 0.60853,0.48657 1.48974,1.22238 1.95824,1.63511 0.75684,0.66675 1.57117,1.34023 4.2704,3.53177 3.56047,2.89078 5.44602,4.50376 5.44602,4.65878 0,0.0576 -0.0727,0.14391 -0.16163,0.19141 -0.0887,0.0474 -0.47227,0.3664 -0.85191,0.70851 -0.37967,0.34211 -0.93357,0.83022 -1.23094,1.08472 -0.29735,0.25451 -1.61875,1.38763 -2.93647,2.51807 -3.00379,2.57688 -2.97257,2.55175 -3.1661,2.54919 -0.0884,-9.8e-4 -0.2983,-0.10572 -0.46615,-0.23213 z m -30.71946,7.94268 c -0.29106,-0.17841 -0.38355,-0.25587 -2.39447,-2.00261 -0.67639,-0.58753 -1.999716,-1.71187 -2.940671,-2.49852 -0.940974,-0.78664 -2.382859,-2.02276 -3.204163,-2.74696 -0.821304,-0.72422 -2.258373,-1.95199 -3.19348,-2.72838 -3.322006,-2.75822 -4.286614,-3.56818 -5.46178,-4.58607 -0.419692,-0.36349 -1.054923,-0.90937 -1.411663,-1.21302 -0.356721,-0.30366 -1.139685,-1.01164 -1.739934,-1.57329 -1.231125,-1.15194 -1.340352,-1.19809 -1.967428,-0.83059 -0.396095,0.23213 -0.491022,0.20473 -0.976657,-0.282 -0.20504,-0.20546 -0.685767,-0.63707 -1.068263,-0.95912 -0.382515,-0.32204 -0.712649,-0.60416 -0.733627,-0.62697 -0.02103,-0.0229 -0.227015,-0.19532 -0.45783,-0.38338 -0.230815,-0.18807 -1.099869,-0.93479 -1.93121,-1.65944 -1.359264,-1.18477 -4.951957,-4.21801 -6.677591,-5.63774 -0.364249,-0.29965 -1.539618,-1.31262 -2.611959,-2.25101 -1.07234,-0.93839 -2.358578,-2.04951 -2.858308,-2.46919 -0.499731,-0.41967 -1.055939,-0.89617 -1.236034,-1.05891 L 62.30538,147.2292 v -9.112 -9.112 l 0.36246,-0.38859 c 0.51665,-0.55392 1.679822,-1.55238 3.223886,-2.76736 1.21083,-0.95277 3.621051,-2.96227 4.497909,-3.75006 0.191091,-0.17159 0.98269,-0.82302 1.759086,-1.44737 0.776413,-0.62436 1.943866,-1.58161 2.594374,-2.12726 0.65049,-0.54564 1.714952,-1.43285 2.36546,-1.97158 2.372508,-1.96483 2.75113,-2.28015 5.150576,-4.2892 1.342972,-1.12448 3.042666,-2.5438 3.777087,-3.15405 2.292986,-1.90527 2.182708,-1.83014 2.466384,-1.68025 0.312237,0.16495 1.538694,1.1105 2.302691,1.77519 0.419674,0.36518 1.613825,1.35713 2.653675,2.20439 1.039849,0.84727 2.069957,1.68892 2.289149,1.87033 0.219191,0.18136 0.827724,0.66215 1.352326,1.06824 0.524602,0.40615 1.263525,1.01315 1.642073,1.3489 0.37853,0.33574 0.790584,0.69132 0.91566,0.79017 l 0.227401,0.17971 -0.495985,0.45442 c -0.442147,0.4051 -1.49958,1.30199 -4.654609,3.94788 -0.524583,0.43991 -1.417789,1.1967 -1.9849,1.68169 -0.948096,0.81084 -2.350608,1.97924 -7.241106,6.03241 -0.987432,0.81837 -2.951022,2.44938 -4.363571,3.62449 -1.412512,1.17509 -2.940616,2.42841 -3.395752,2.78513 -1.9118,1.49838 -4.405879,3.65297 -4.49743,3.88523 -0.03339,0.085 0.165132,0.32423 0.670361,0.80752 0.890511,0.85182 1.998406,1.85715 2.65183,2.40636 1.064167,0.89448 4.038861,3.50197 4.349382,3.81249 0.02103,0.021 0.261333,0.22591 0.534123,0.45536 0.272808,0.22945 1.299245,1.12223 2.280975,1.98393 0.981749,0.86169 2.124073,1.847 2.538489,2.18959 0.414415,0.34255 1.001823,0.84471 1.305351,1.1159 0.737797,0.65918 2.330866,2.05104 3.948768,3.44998 0.728056,0.62951 1.515964,1.31625 1.750931,1.52611 0.387072,0.34567 1.020089,0.88686 2.112467,1.80598 0.216055,0.18174 1.091659,0.93269 1.945767,1.66865 0.854128,0.73597 1.913498,1.63332 2.35415,1.99414 0.440652,0.36084 1.178912,0.98889 1.640542,1.39574 0.46167,0.40681 1.2177,1.05747 1.68006,1.44587 0.46237,0.38844 1.23497,1.07694 1.71686,1.53001 0.4819,0.45307 1.27103,1.15909 1.7537,1.56895 1.00527,0.85368 2.97834,2.56476 4.60304,3.99179 0.61336,0.53874 1.25356,1.07978 1.42273,1.20227 0.169,0.12251 0.30526,0.24833 0.30257,0.27955 -0.004,0.0312 -0.25168,0.21647 -0.55324,0.41168 -0.54713,0.35419 -1.71257,1.31888 -2.80344,2.32052 -0.31707,0.29114 -1.20662,1.06156 -1.9768,1.71209 -0.77018,0.65049 -1.59236,1.34531 -1.82711,1.54402 -0.6837,0.5788 -1.82534,1.5082 -1.85206,1.50778 -0.0129,0 -0.15018,-0.0775 -0.3038,-0.17159 z m 33.77167,-44.61105 c -0.55338,-0.33339 -0.84861,-0.55837 -1.79318,-1.36643 -1.29903,-1.11131 -2.59903,-2.18785 -4.1561,-3.44165 -1.38353,-1.11406 -2.71218,-2.34836 -2.71083,-2.51835 0,-0.0363 0.12878,-0.15184 0.28526,-0.25675 0.30611,-0.2051 1.20583,-0.94179 3.91098,-3.20237 4.35193,-3.63671 5.23781,-4.38033 6.36606,-5.34378 5.09341,-4.34955 6.71571,-5.724 8.28451,-7.0187 0.98624,-0.81393 2.13317,-1.77387 2.54873,-2.13319 0.41558,-0.35932 1.32871,-1.13402 2.02918,-1.72158 0.70049,-0.58753 1.889,-1.6083 2.6411,-2.26833 1.68794,-1.48132 3.23462,-2.72656 3.38874,-2.72831 0.22699,-0.004 1.32516,0.85905 3.20346,2.51353 0.44065,0.38814 1.26151,1.0713 1.82408,1.51812 0.56261,0.44683 1.44748,1.18002 1.96636,1.62938 0.5189,0.44934 1.18314,1.01416 1.47608,1.25518 0.29295,0.24098 0.5308,0.45708 0.52857,0.48019 -0.002,0.0231 -0.18929,0.17934 -0.41566,0.34722 -0.22633,0.16772 -0.97134,0.7685 -1.65554,1.33471 -1.19847,0.99182 -1.94575,1.62519 -4.63713,3.93034 -0.68601,0.58753 -1.66252,1.40937 -2.17004,1.82628 -1.46268,1.20158 -2.70692,2.24503 -3.32636,2.78958 -0.52323,0.46001 -1.02736,0.8814 -3.01405,2.51949 -0.3777,0.31144 -1.15164,0.97948 -1.71982,1.4845 -0.56824,0.50507 -1.44212,1.26165 -1.94202,1.68134 -0.4999,0.41967 -1.42565,1.204 -2.05725,1.74294 -0.63159,0.53894 -1.62906,1.36926 -2.21662,1.84512 -0.58755,0.47589 -1.25712,1.03983 -1.48793,1.25323 -0.23082,0.2134 -1.08925,0.96258 -1.90762,1.66489 -0.81838,0.7023 -1.75685,1.54302 -2.08549,1.86826 -0.32866,0.32526 -0.62051,0.59128 -0.64859,0.59119 -0.028,0 -0.25709,-0.12436 -0.50888,-0.27605 z m -22.014,-3.73355 c -0.27279,-0.19004 -0.67238,-0.49735 -0.88799,-0.68292 -0.58414,-0.50276 -1.9227,-1.5939 -3.80476,-3.10147 -0.9233,-0.73961 -2.21094,-1.79831 -2.86143,-2.35273 -1.47594,-1.25797 -2.60009,-2.21113 -2.81696,-2.38849 l -0.16605,-0.1358 0.1679,-0.23581 c 0.25756,-0.36172 0.59274,-0.67573 1.65128,-1.54716 0.53519,-0.4406 1.40227,-1.16594 1.92687,-1.61191 1.49611,-1.27186 3.73666,-3.157 5.10569,-4.29575 0.68877,-0.57292 2.01075,-1.6962 2.93775,-2.4962 0.92699,-0.79997 2.49236,-2.10317 3.4786,-2.89596 0.98625,-0.79282 2.08505,-1.70208 2.44177,-2.02059 0.35672,-0.31849 1.26088,-1.09271 2.00925,-1.72047 0.74837,-0.62774 1.52405,-1.27871 1.72374,-1.44657 0.19969,-0.16771 1.02955,-0.84278 1.84416,-1.4998 2.59993,-2.09704 2.85386,-2.31575 2.87744,-2.47832 0.0148,-0.1 -0.0454,-0.2027 -0.16329,-0.27995 -0.36814,-0.24122 -1.11863,-0.98789 -1.11863,-1.11295 0,-0.17805 0.73553,-0.873018 1.64394,-1.553046 0.42152,-0.315559 1.29904,-1.015661 1.95003,-1.555762 0.651,-0.540082 1.6796,-1.382069 2.28577,-1.871061 0.60621,-0.488993 1.4186,-1.148781 1.80538,-1.466185 0.87704,-0.719807 2.23001,-1.727055 2.31979,-1.727055 0.0384,0 0.0712,4.251651 0.076,9.938729 0.006,5.46628 0.0201,10.12755 0.0338,10.35838 0.0251,0.41953 0.0249,0.41979 -0.3712,0.77841 -0.59281,0.5367 -4.4188,3.75435 -8.7898,7.39218 -1.42693,1.18756 -2.92056,2.43751 -3.31928,2.77769 -0.39868,0.34018 -1.44598,1.19851 -2.32728,1.90744 -0.88133,0.70892 -2.18404,1.78906 -2.89496,2.40031 -1.93063,1.6601 -3.24837,2.77388 -4.35403,3.6802 -0.54558,0.44722 -1.17302,0.98789 -1.39436,1.20148 -0.22131,0.21358 -0.42733,0.38796 -0.45782,0.38751 -0.0305,-7.5e-4 -0.27863,-0.15627 -0.55142,-0.34633 z m -71.91194,0.77503 c -0.38971,-0.21159 -1.185258,-0.83658 -1.905379,-1.4969 -0.997912,-0.91503 -1.994606,-1.75276 -3.893804,-3.27276 -1.653014,-1.32301 -2.556201,-2.16094 -2.556201,-2.37157 0,-0.16476 0.922855,-1.03042 2.022078,-1.8966 0.935605,-0.73726 1.930915,-1.55672 3.510016,-2.88988 0.377718,-0.31886 1.356331,-1.12612 2.174701,-1.79388 0.81837,-0.66778 1.831319,-1.50918 2.250993,-1.86983 0.419675,-0.36067 1.226606,-1.02911 1.793164,-1.48546 0.566577,-0.45634 1.596685,-1.31524 2.289149,-1.90863 1.778957,-1.52449 4.738448,-3.9963 6.485928,-5.41715 0.81837,-0.66539 1.965823,-1.62482 2.549891,-2.13202 1.242269,-1.0788 4.04447,-3.44149 5.640989,-4.75622 0.216387,-0.17823 0.457331,-0.32412 0.535451,-0.32428 0.153876,-3.2e-4 0.475413,0.2502 1.759491,1.37087 0.458273,0.39995 1.166383,1.00189 1.573566,1.33762 2.266824,1.86914 2.72137,2.23909 3.077427,2.50457 0.215187,0.16052 0.883924,0.72701 1.486074,1.25903 l 1.094832,0.96732 -0.245355,0.19076 c -0.784642,0.61001 -3.297245,2.65779 -4.185838,3.41149 -0.571761,0.48499 -1.395722,1.17767 -1.830968,1.53934 -0.435283,0.36168 -1.220941,1.01813 -1.745949,1.45878 -0.524989,0.44068 -1.547108,1.28191 -2.271344,1.86948 -0.724255,0.58755 -2.033167,1.65757 -2.908679,2.37786 -0.875511,0.72029 -2.621976,2.15728 -3.880999,3.19331 -1.259023,1.03605 -2.666867,2.21661 -3.128497,2.62346 -0.461649,0.40685 -1.217067,1.04974 -1.678716,1.42864 -0.461649,0.37889 -1.709841,1.40751 -2.773787,2.28581 -1.063946,0.87831 -2.162726,1.77978 -2.441753,2.00329 -0.279026,0.22355 -0.91208,0.73859 -1.406774,1.14459 -0.494675,0.40599 -0.958243,0.74607 -1.030107,0.75572 -0.07196,0.009 -0.233694,-0.0384 -0.3596,-0.10683 z m 63.69593,-20.26826 c -0.56699,-0.45501 -2.06956,-1.64192 -3.45316,-2.72772 -2.57922,-2.02405 -3.13047,-2.4635 -4.158622,-3.31521 -0.587537,-0.48672 -1.600486,-1.30225 -2.250994,-1.81224 -0.650489,-0.51003 -1.714952,-1.36146 -2.36546,-1.8921 -0.650489,-0.53065 -1.560429,-1.24526 -2.022078,-1.58803 -0.461649,-0.34279 -0.873685,-0.65029 -0.91566,-0.68337 -0.152769,-0.12048 -0.993262,-0.74326 -1.153301,-0.85468 -0.09041,-0.0629 -0.365854,-0.26871 -0.611983,-0.457267 -0.246166,-0.188568 -0.540857,-0.411763 -0.654863,-0.49599 -0.771008,-0.569547 -4.191797,-3.200897 -5.057733,-3.890501 -0.377718,-0.300779 -0.930217,-0.733221 -1.227804,-0.960992 -0.297569,-0.227734 -0.962967,-0.757466 -1.478676,-1.17714 -1.125589,-0.916028 -1.57089,-1.268322 -2.982462,-2.359685 -0.593016,-0.458494 -1.615817,-1.277252 -2.27293,-1.819455 -1.28716,-1.062138 -3.496566,-2.858752 -4.666602,-3.794688 -3.250898,-2.600519 -5.843317,-4.655993 -6.676687,-5.293752 -1.341275,-1.026473 -2.228447,-1.773606 -2.379132,-2.003554 -0.123618,-0.188822 -0.119928,-0.195778 0.40222,-0.725878 0.289912,-0.294396 1.074094,-0.987487 1.742609,-1.540171 1.359781,-1.124205 3.377265,-2.870873 4.459422,-3.860796 1.45194,-1.328212 1.506037,-1.359153 1.841909,-1.053632 0.10443,0.09502 0.790879,0.675121 1.525318,1.289041 0.73444,0.613903 1.627202,1.369265 1.983923,1.678513 0.35674,0.309266 1.112139,0.945512 1.678716,1.413933 0.566558,0.468383 1.289779,1.068872 1.607164,1.334411 0.317385,0.26552 1.121917,0.929128 1.787887,1.474727 1.47921,1.211808 3.720591,3.085526 5.616357,4.695052 0.520506,0.441907 1.478602,1.228727 2.12911,1.748495 2.895376,2.313393 3.905428,3.133959 4.651011,3.778507 l 0.797614,0.689549 1.071861,0.02675 c 0.58951,0.01476 2.160143,-0.01291 3.490274,-0.06218 1.682055,-0.06181 2.463639,-0.06458 2.566962,-0.0092 0.18376,0.09834 1.85665,1.48386 2.92143,2.419538 0.43557,0.382774 1.16966,0.997912 1.63131,1.366995 1.1002,0.879589 2.72715,2.212967 3.58633,2.939159 0.37772,0.319267 1.09906,0.903925 1.60296,1.299226 0.85887,0.673774 2.6367,2.11005 4.41388,3.565895 0.42588,0.34887 1.30654,1.04825 1.95704,1.55423 1.35742,1.0558 2.51834,2.10428 2.51746,2.27366 0,0.0638 -0.24497,0.30493 -0.54361,0.53576 -0.78302,0.60517 -1.70316,1.34987 -2.9658,2.40035 -0.60855,0.5063 -1.75884,1.45196 -2.55622,2.10149 -1.43524,1.16909 -1.77676,1.45401 -3.46068,2.88729 -0.92914,0.79086 -1.52524,1.23521 -1.65034,1.23024 -0.0428,-0.002 -0.25784,-0.14779 -0.47797,-0.32432 z m 18.85714,-15.450875 c -0.13081,-0.114208 -0.45543,-0.379267 -0.72141,-0.589123 -0.4715,-0.37198 -1.85815,-1.561167 -2.93233,-2.514761 -0.29377,-0.260797 -1.02531,-0.900475 -1.62565,-1.421461 -0.60034,-0.521022 -1.32609,-1.153319 -1.61281,-1.405113 -0.67605,-0.593773 -1.77335,-1.520908 -2.25624,-1.90632 -0.43554,-0.347588 -2.15641,-1.806559 -3.27593,-2.777238 -0.41722,-0.361795 -0.98677,-0.846654 -1.26565,-1.07747 -1.11861,-0.925899 -1.93626,-1.615633 -3.39339,-2.862552 -0.83935,-0.718258 -1.76646,-1.490133 -2.06023,-1.715266 -0.29379,-0.225151 -0.5513,-0.430412 -0.57228,-0.456169 -0.021,-0.02583 -0.2355,-0.205796 -0.47669,-0.400117 -0.4953,-0.399028 -2.57553,-2.358412 -2.57553,-2.425885 0,-0.119374 1.45865,-1.479838 2.78515,-2.597733 0.41967,-0.353695 1.12358,-0.954811 1.56425,-1.335813 0.44065,-0.381021 1.31625,-1.117785 1.94576,-1.637257 0.62953,-0.519492 1.37803,-1.152379 1.66337,-1.406442 0.28532,-0.254063 0.57719,-0.482978 0.64857,-0.508735 0.0906,-0.03266 0.28024,0.0941 0.62792,0.419693 0.27394,0.256553 1.09803,0.981952 1.83132,1.611998 1.24816,1.072415 2.13895,1.807426 5.48344,4.524404 2.04227,1.659084 3.33994,2.736831 4.01442,3.334017 0.69901,0.618921 1.58659,1.366866 2.89958,2.443376 0.50361,0.412922 1.60241,1.338046 2.44175,2.05588 0.83935,0.717834 2.04116,1.732166 2.67067,2.254112 0.62955,0.521908 1.59206,1.327695 2.13896,1.79058 0.54689,0.462885 1.12179,0.92745 1.27757,1.032377 0.15572,0.104983 0.2824,0.207937 0.28141,0.228934 -0.001,0.02103 -0.16218,0.158305 -0.358,0.305207 -0.19585,0.14705 -1.02787,0.851083 -1.84892,1.564876 -0.82101,0.713775 -1.71556,1.467716 -1.98787,1.675413 -0.64726,0.493697 -1.86363,1.506333 -3.47098,2.889619 -0.74252,0.638976 -1.36245,1.115958 -1.4498,1.11546 -0.084,-4.62e-4 -0.25963,-0.09428 -0.39043,-0.208491 z"
       id="path1120-5"
       sodipodi:nodetypes="cscsscsssscccsccssccssssssscssssssscsssccccssscsssscscsssssscccssccccssccsscscccccsssccssssscsssssccsssccssssccccssccscsscscsssscsssscsssssssscccccscccscssssscsccsssscscccssscsscccccsscsccsccccssccscssccsscssssscccccscssccsssccscccccccsssccsccsccccssscssccscsccccsscccccsscssscssccssssscscscscssc" /></g></svg>
