<?xml version="1.0" encoding="UTF-8" standalone="no"?>
<!-- Created with Inkscape (http://www.inkscape.org/) -->

<svg
   width="190.10818mm"
   height="59.891605mm"
   viewBox="0 0 190.10819 59.891605"
   version="1.1"
   id="svg1543"
   inkscape:version="1.2.2 (b0a8486541, 2022-12-01)"
   sodipodi:docname="candidate-1-white.svg"
   xmlns:inkscape="http://www.inkscape.org/namespaces/inkscape"
   xmlns:sodipodi="http://sodipodi.sourceforge.net/DTD/sodipodi-0.dtd"
   xmlns="http://www.w3.org/2000/svg"
   xmlns:svg="http://www.w3.org/2000/svg">
  <sodipodi:namedview
     id="namedview1545"
     pagecolor="#ffffff"
     bordercolor="#666666"
     borderopacity="1.0"
     inkscape:showpageshadow="2"
     inkscape:pageopacity="0.0"
     inkscape:pagecheckerboard="0"
     inkscape:deskcolor="#d1d1d1"
     inkscape:document-units="mm"
     showgrid="false"
     inkscape:zoom="0.77593294"
     inkscape:cx="387.92012"
     inkscape:cy="-103.10169"
     inkscape:window-width="946"
     inkscape:window-height="1041"
     inkscape:window-x="964"
     inkscape:window-y="29"
     inkscape:window-maximized="0"
     inkscape:current-layer="layer1" />
  <defs
     id="defs1540">
    <rect
       x="340.61371"
       y="35.650299"
       width="733.64398"
       height="250.17654"
       id="rect5539" />
  </defs>
  <g
     inkscape:label="Layer 1"
     inkscape:groupmode="layer"
     id="layer1"
     transform="translate(-2.5781186,-66.860854)">
    <path
       d="m 88.080255,80.085135 v 27.163895 q 0,3.25967 3.309062,3.25967 h 12.297873 l 0.19756,3.35845 q -3.2103,0.24695 -6.568756,0.29633 -3.309061,0.0494 -6.618123,0.0494 -3.753562,0 -5.334011,-1.82739 -1.580446,-1.82739 -1.580446,-4.59317 V 80.085135 Z"
       style="font-size:186.667px;line-height:1.25;font-family:'Exo 2';-inkscape-font-specification:'Exo 2, ';white-space:pre;shape-inside:url(#rect5539);display:inline;stroke-width:0.264583;fill:#ffffff"
       id="path691" />
    <path
       d="m 132.92561,80.085135 v 21.039655 q 0,4.9389 -1.18533,7.95163 -1.18534,3.01273 -3.85234,4.39562 -2.66702,1.3335 -7.16144,1.3335 -4.5932,0 -7.359,-1.3335 -2.7658,-1.38289 -4.00053,-4.39562 -1.23473,-3.01273 -1.23473,-7.95163 V 80.085135 h 4.34625 v 21.039655 q 0,3.65479 0.74084,5.8279 0.79023,2.12373 2.56824,3.06212 1.77802,0.889 4.74137,0.889 2.96336,0 4.69198,-0.889 1.77802,-0.93839 2.56824,-3.06212 0.79022,-2.17311 0.79022,-5.8279 V 80.085135 Z"
       style="font-size:186.667px;line-height:1.25;font-family:'Exo 2';-inkscape-font-specification:'Exo 2, ';white-space:pre;shape-inside:url(#rect5539);display:inline;stroke-width:0.264583;fill:#ffffff"
       id="path693" />
    <path
       d="m 153.02695,79.640634 q 3.95112,0 6.37118,0.889002 2.42006,0.839612 3.50662,2.963338 1.13594,2.123726 1.13594,5.976068 0,4.148667 -1.48167,6.272385 -1.43228,2.074318 -4.79073,2.518815 v 0.246947 q 1.28411,0.34572 2.46945,1.531051 1.18534,1.18533 1.72861,3.35845 l 3.30907,10.76679 h -4.64257 l -3.01272,-10.66801 q -0.64206,-1.92618 -1.72862,-2.7164 -1.08656,-0.839607 -2.81517,-0.839607 -2.37067,0 -4.24745,0 -1.8274,-0.0494 -3.25968,-0.0494 v 14.273407 h -4.29684 V 80.085135 q 1.87678,-0.197556 3.50662,-0.296334 1.62984,-0.09878 3.55601,-0.09878 1.97556,-0.04939 4.69195,-0.04939 z m -0.0988,3.753562 q -2.17311,0 -4.04989,0.04939 -1.87679,0 -3.30907,0 v 12.742338 h 7.35896 q 2.51884,-0.0494 3.95112,-0.592667 1.48167,-0.543277 2.12373,-1.926161 0.64205,-1.432271 0.64205,-3.95111 0,-2.518838 -0.64205,-3.852341 -0.64206,-1.38289 -2.12373,-1.926169 -1.43228,-0.543279 -3.95112,-0.54328 z"
       style="font-size:186.667px;line-height:1.25;font-family:'Exo 2';-inkscape-font-specification:'Exo 2, ';white-space:pre;shape-inside:url(#rect5539);display:inline;stroke-width:0.264583;fill:#ffffff"
       id="path695" />
    <path
       d="m 178.06716,80.035746 q 3.65478,0 7.40835,0.04939 3.80295,0 7.21079,0.246945 l -0.19756,3.407839 h -13.68075 q -2.96334,0 -2.96334,3.259674 v 7.408329 h 14.71792 v 3.506599 h -14.71792 v 9.334508 q 0,1.72861 0.69145,2.51884 0.74083,0.79022 2.27189,0.79022 h 13.68075 l 0.19756,3.35845 q -3.40784,0.19756 -7.21079,0.24694 -3.75357,0.0494 -7.40835,0.0494 -3.01273,0 -4.79073,-1.58044 -1.72862,-1.62984 -1.77801,-4.34623 V 85.962423 q 0.0494,-2.765782 1.77801,-4.34623 1.778,-1.580447 4.79073,-1.580447 z"
       style="font-size:186.667px;line-height:1.25;font-family:'Exo 2';-inkscape-font-specification:'Exo 2, ';white-space:pre;shape-inside:url(#rect5539);display:inline;stroke-width:0.264583;fill:#ffffff"
       id="path697" />
    <path
       style="fill:#ffffff;fill-opacity:1;stroke-width:0.0413566"
       d="m 56.359501,122.35451 c -0.09094,-0.0686 -0.370219,-0.31683 -0.620509,-0.55169 -0.250301,-0.23486 -0.575978,-0.52649 -0.723744,-0.64807 -0.868343,-0.71451 -1.260205,-1.04474 -1.592076,-1.34168 -0.20472,-0.18317 -0.55832,-0.49032 -0.785782,-0.68255 -0.227456,-0.19223 -0.497305,-0.42657 -0.599667,-0.52075 -0.102358,-0.0942 -0.409429,-0.35755 -0.68238,-0.58527 -0.993157,-0.82857 -3.231961,-2.74828 -4.156348,-3.56395 -0.661959,-0.5841 -0.992187,-0.86207 -1.426798,-1.20097 -0.159231,-0.12415 0.145956,0.24304 -0.986958,-0.82659 -0.889012,-0.83935 -0.953602,-0.81775 -1.199373,-0.86698 -0.116795,-0.0234 -0.845117,-0.0592 -1.618491,-0.0796 -0.85517,-0.0226 -1.467375,-0.0561 -1.562435,-0.0858 -0.217979,-0.0679 -1.467855,-1.04607 -2.6973,-2.11096 -0.250203,-0.21673 -0.724287,-0.60803 -1.053519,-0.86956 -0.329228,-0.26154 -0.766579,-0.61202 -0.971881,-0.77886 -0.205307,-0.16683 -0.652443,-0.52622 -0.993637,-0.79865 -0.341187,-0.27242 -0.856215,-0.69025 -1.144498,-0.92849 -0.288288,-0.23826 -0.878029,-0.69773 -1.310544,-1.02105 -0.816451,-0.61034 -1.735987,-1.38181 -1.74022,-1.46001 -0.0043,-0.0744 0.891996,-0.91865 1.444484,-1.36112 1.300275,-1.04134 2.808158,-2.304937 3.701979,-3.102234 0.533317,-0.475717 0.803882,-0.681884 0.894872,-0.681884 0.164901,0 0.352302,0.129467 1.032528,0.713324 0.377688,0.32417 0.908091,0.778687 1.178673,1.010034 0.784317,0.67057 2.906144,2.4254 3.71778,3.07472 0.409429,0.32756 1.284127,1.04383 1.943764,1.59172 0.659638,0.54789 1.73905,1.4362 2.398694,1.97401 2.064295,1.6831 2.508238,2.05204 3.019034,2.50906 0.58482,0.52324 1.682876,1.45517 2.295291,1.94802 0.23883,0.19222 0.583124,0.48214 0.765097,0.64428 0.337218,0.30049 0.852914,0.72414 1.923085,1.57982 0.329824,0.26372 0.807425,0.66252 1.06135,0.88622 0.410199,0.36137 0.851562,0.72639 2.314516,1.91419 1.929758,1.56678 2.951704,2.441 2.951704,2.52502 0,0.0312 -0.03942,0.078 -0.08765,0.10374 -0.04809,0.0258 -0.255971,0.1986 -0.461731,0.38401 -0.20578,0.18542 -0.505991,0.44997 -0.667161,0.58791 -0.161158,0.13794 -0.877352,0.75208 -1.591537,1.36477 -1.628033,1.39665 -1.611113,1.38303 -1.716001,1.38165 -0.04793,-5.4e-4 -0.161676,-0.0573 -0.252654,-0.12581 z m -16.649703,4.30487 c -0.157744,-0.0967 -0.207875,-0.13868 -1.297772,-1.0854 -0.366606,-0.31844 -1.083831,-0.92782 -1.593829,-1.35417 -0.509999,-0.42635 -1.291484,-1.09633 -1.736622,-1.48884 -0.445148,-0.39251 -1.224031,-1.05796 -1.730847,-1.47876 -1.800496,-1.49493 -2.323312,-1.93392 -2.960246,-2.48561 -0.227462,-0.19701 -0.571756,-0.49286 -0.765103,-0.65745 -0.193341,-0.16458 -0.617704,-0.5483 -0.943031,-0.85271 -0.667258,-0.62434 -0.726464,-0.64935 -1.066337,-0.45017 -0.214673,0.12581 -0.266123,0.11096 -0.529332,-0.15284 -0.11113,-0.11136 -0.371679,-0.34529 -0.578994,-0.51984 -0.207321,-0.17454 -0.386246,-0.32745 -0.397619,-0.33981 -0.01136,-0.0124 -0.123037,-0.10586 -0.248142,-0.20778 -0.125105,-0.10194 -0.596119,-0.50666 -1.046702,-0.89941 -0.736713,-0.64214 -2.683925,-2.28612 -3.619204,-3.05561 -0.197415,-0.16241 -0.834459,-0.71143 -1.415657,-1.22003 -0.581197,-0.50859 -1.278329,-1.11081 -1.549181,-1.33828 -0.270851,-0.22746 -0.572314,-0.48572 -0.669917,-0.57392 l -0.177462,-0.16035 v -4.93862 -4.938631 l 0.196445,-0.210607 c 0.280025,-0.30022 0.910452,-0.841377 1.74732,-1.499881 0.656263,-0.516387 1.962587,-1.605511 2.437831,-2.032491 0.103575,-0.093 0.532611,-0.446067 0.95342,-0.784454 0.420803,-0.338397 1.053558,-0.857214 1.406124,-1.152954 0.352567,-0.295727 0.929493,-0.776587 1.282059,-1.068574 1.285889,-1.06492 1.491099,-1.235821 2.791576,-2.324711 0.727879,-0.609458 1.649101,-1.378718 2.047156,-1.709469 1.24278,-1.032646 1.183003,-0.991918 1.336752,-0.910681 0.169231,0.08944 0.833964,0.601876 1.248041,0.962143 0.227462,0.197913 0.874687,0.735548 1.438273,1.194758 0.563587,0.459205 1.121906,0.915378 1.240704,1.013701 0.118798,0.09833 0.448623,0.358873 0.732953,0.578978 0.284325,0.220133 0.68482,0.549117 0.889987,0.731084 0.205161,0.181973 0.428487,0.374694 0.496276,0.428272 l 0.123255,0.09743 -0.268818,0.246294 c -0.239648,0.219558 -0.812767,0.705665 -2.522762,2.139709 -0.284325,0.238427 -0.768437,0.648594 -1.075804,0.911454 -0.51386,0.439467 -1.274009,1.072734 -3.924619,3.269512 -0.535181,0.443547 -1.599439,1.327521 -2.36502,1.964418 -0.765578,0.63689 -1.593795,1.31618 -1.840478,1.50952 -1.036179,0.81211 -2.387945,1.97988 -2.43757,2.10576 -0.01815,0.0461 0.08949,0.17573 0.363326,0.43768 0.482657,0.46167 1.083129,1.00655 1.437273,1.30423 0.576775,0.4848 2.189036,1.89803 2.357331,2.06633 0.01136,0.0114 0.141648,0.12244 0.289499,0.2468 0.147852,0.12436 0.704174,0.60824 1.236268,1.07527 0.5321,0.46703 1.151231,1.00107 1.375838,1.18674 0.224613,0.18567 0.542983,0.45784 0.707491,0.60481 0.399877,0.35727 1.263314,1.11165 2.140204,1.86986 0.394598,0.34119 0.821642,0.71341 0.948987,0.82714 0.209787,0.18736 0.552881,0.48067 1.144943,0.97883 0.117102,0.0985 0.591671,0.50551 1.054591,0.90439 0.462927,0.39889 1.037096,0.88525 1.275932,1.08081 0.238827,0.19557 0.638961,0.53597 0.889159,0.75648 0.250214,0.22049 0.659972,0.57314 0.910574,0.78365 0.250607,0.21053 0.669347,0.58369 0.930526,0.82925 0.261184,0.24557 0.688891,0.62822 0.950484,0.85037 0.544852,0.46268 1.614247,1.39008 2.494814,2.16351 0.332437,0.29199 0.679424,0.58523 0.771107,0.65163 0.09164,0.0664 0.165456,0.13458 0.163992,0.1515 -0.0022,0.0169 -0.136414,0.11733 -0.299845,0.22313 -0.296549,0.19197 -0.9282,0.71483 -1.519445,1.2577 -0.171849,0.1578 -0.653984,0.57537 -1.07141,0.92794 -0.417426,0.35256 -0.863054,0.72915 -0.990281,0.83685 -0.370563,0.3137 -0.989316,0.81743 -1.003803,0.8172 -0.007,0 -0.08135,-0.042 -0.164659,-0.093 z m 18.303973,-24.17883 c -0.299926,-0.18069 -0.459943,-0.30262 -0.971885,-0.74059 -0.704066,-0.60232 -1.40866,-1.1858 -2.25257,-1.865337 -0.749862,-0.603807 -1.469982,-1.272794 -1.46925,-1.364924 0,-0.0197 0.06978,-0.0822 0.1546,-0.139147 0.165919,-0.11117 0.653552,-0.510447 2.119727,-1.735661 2.358713,-1.971048 2.83885,-2.374088 3.450349,-2.896265 2.760592,-2.357414 3.639862,-3.102349 4.490143,-3.804067 0.534528,-0.441142 1.156157,-0.961421 1.381384,-1.156168 0.225243,-0.194751 0.720157,-0.614633 1.0998,-0.933084 0.379665,-0.31844 1.023825,-0.871692 1.431456,-1.229423 0.914844,-0.802853 1.753137,-1.477769 1.836668,-1.478717 0.123026,-0.0022 0.718224,0.465603 1.736244,1.36231 0.23883,0.210374 0.683731,0.580642 0.988644,0.822805 0.304928,0.24218 0.784516,0.639567 1.065755,0.883115 0.281238,0.243542 0.641242,0.549671 0.800015,0.680295 0.158778,0.130619 0.287695,0.247732 0.286478,0.260264 -0.0011,0.01249 -0.102589,0.09723 -0.225275,0.188187 -0.122676,0.09094 -0.526466,0.416521 -0.897289,0.723404 -0.649567,0.537555 -1.054586,0.880842 -2.513296,2.130208 -0.371808,0.31844 -0.901069,0.763867 -1.176136,0.989824 -0.792761,0.651247 -1.467128,1.216784 -1.80286,1.511924 -0.283592,0.249327 -0.556823,0.477707 -1.633596,1.365541 -0.204709,0.16879 -0.624171,0.530857 -0.932131,0.804574 -0.307971,0.27375 -0.781619,0.683797 -1.052556,0.911267 -0.270942,0.227457 -0.77269,0.652554 -1.115013,0.944654 -0.342319,0.292097 -0.882937,0.742127 -1.201383,1.000034 -0.31845,0.25793 -0.681351,0.563577 -0.80645,0.679237 -0.125104,0.11566 -0.590368,0.52171 -1.033917,0.90236 -0.443556,0.38064 -0.952191,0.8363 -1.130319,1.01258 -0.178128,0.17629 -0.336308,0.32047 -0.351532,0.32042 -0.01519,0 -0.139338,-0.0674 -0.275805,-0.14962 z M 46.082365,100.457 c -0.147851,-0.103 -0.364429,-0.26956 -0.481284,-0.37014 -0.316603,-0.272487 -1.042092,-0.863864 -2.062153,-1.680958 -0.500413,-0.40086 -1.198307,-0.974667 -1.550868,-1.275154 -0.799945,-0.681797 -1.409226,-1.198404 -1.526764,-1.294534 l -0.09004,-0.0736 0.09104,-0.12781 c 0.139596,-0.19605 0.321256,-0.36624 0.894978,-0.838547 0.29007,-0.238787 0.760019,-0.631924 1.044349,-0.873634 0.810877,-0.689337 2.025237,-1.711061 2.767242,-2.328254 0.373305,-0.310513 1.089811,-0.919325 1.592238,-1.352918 0.502416,-0.433576 1.350839,-1.139899 1.885371,-1.569592 0.534539,-0.429699 1.130076,-0.922503 1.323417,-1.095132 0.193341,-0.172624 0.683392,-0.592247 1.088998,-0.932481 0.405611,-0.340234 0.82602,-0.693053 0.934253,-0.784037 0.108227,-0.09094 0.558013,-0.456776 0.999516,-0.81288 1.409139,-1.136576 1.546775,-1.255116 1.559554,-1.343224 0.008,-0.0542 -0.02456,-0.109859 -0.08854,-0.151735 -0.199533,-0.130737 -0.606286,-0.535427 -0.606286,-0.603211 0,-0.09653 0.398648,-0.473169 0.890993,-0.84174 0.228464,-0.17103 0.704077,-0.550479 1.056907,-0.843204 0.35283,-0.292726 0.910321,-0.749076 1.238869,-1.0141 0.328554,-0.265034 0.768867,-0.622636 0.978493,-0.794657 0.475355,-0.390133 1.208657,-0.936051 1.257313,-0.936051 0.02084,0 0.03856,2.304355 0.0412,5.386704 0.0032,2.962678 0.01088,5.489055 0.01826,5.61416 0.01357,0.227386 0.01346,0.227526 -0.201187,0.421895 -0.3213,0.29089 -2.394951,2.034824 -4.764003,4.006487 -0.773375,0.643647 -1.582921,1.321111 -1.799015,1.505491 -0.216088,0.18436 -0.783714,0.649567 -1.261374,1.033797 -0.47767,0.384227 -1.183734,0.969654 -1.569038,1.300954 -1.046395,0.899744 -1.760589,1.503401 -2.359848,1.994618 -0.295703,0.242387 -0.635776,0.535427 -0.755732,0.651187 -0.119951,0.11576 -0.231614,0.21027 -0.248146,0.21003 -0.01648,-4.1e-4 -0.151008,-0.0848 -0.298854,-0.1877 z M 7.1066709,100.87706 C 6.8954493,100.76238 6.4642712,100.42364 6.0739765,100.06575 5.5331158,99.569813 4.9929161,99.115786 3.9635657,98.291952 3.0676403,97.574905 2.5781186,97.120748 2.5781186,97.006598 c 0,-0.0893 0.5001817,-0.558487 1.0959515,-1.027934 0.5070907,-0.399587 1.0465444,-0.843734 1.9024047,-1.566281 0.2047161,-0.17283 0.7351148,-0.610357 1.1786644,-0.972274 0.4435507,-0.361917 0.9925594,-0.817957 1.2200215,-1.013424 0.2274606,-0.19548 0.6648083,-0.557771 0.9718814,-0.805109 0.3070726,-0.247333 0.8653872,-0.71285 1.2406979,-1.034462 0.964182,-0.826262 2.568202,-2.165959 3.515317,-2.936048 0.443551,-0.360639 1.065459,-0.880637 1.382018,-1.155543 0.673301,-0.584692 2.192078,-1.865258 3.057374,-2.577828 0.117279,-0.09663 0.247873,-0.175672 0.290209,-0.175758 0.08337,-1.72e-4 0.257671,0.135611 0.953631,0.742996 0.248386,0.216778 0.632172,0.543026 0.852859,0.724988 1.228603,1.01306 1.474966,1.213569 1.667946,1.357457 0.116628,0.08695 0.479076,0.394027 0.805444,0.68238 l 0.593389,0.52428 -0.132989,0.103391 c -0.425267,0.330621 -1.787077,1.440498 -2.268684,1.848995 -0.309896,0.262859 -0.756468,0.638296 -0.992378,0.834314 -0.235911,0.196028 -0.661737,0.551814 -0.946283,0.790644 -0.284544,0.238841 -0.83852,0.694788 -1.231058,1.013243 -0.392539,0.318447 -1.101953,0.898384 -1.576476,1.288771 -0.474524,0.39039 -1.421085,1.169224 -2.10347,1.730741 -0.682385,0.561537 -1.445416,1.201374 -1.695623,1.421884 -0.250208,0.220507 -0.659639,0.568944 -0.909847,0.774304 -0.250208,0.20536 -0.926724,0.762857 -1.5033697,1.238884 -0.5766466,0.476037 -1.1721803,0.964624 -1.3234133,1.085774 -0.1512306,0.121147 -0.4943347,0.400297 -0.7624514,0.620347 -0.268118,0.22004 -0.5193597,0.40436 -0.5583147,0.40959 -0.03896,0.005 -0.12666,-0.0208 -0.194899,-0.0579 z M 41.629351,89.89188 C 41.322053,89.645263 40.50767,89.001964 39.757775,88.413476 38.359848,87.316454 38.06108,87.078281 37.503835,86.616653 37.185389,86.352852 36.63638,85.910848 36.283813,85.634434 35.931247,85.35801 35.354321,84.896538 35.001755,84.608934 34.649185,84.32133 34.15601,83.934018 33.905801,83.748232 33.655592,83.562447 33.432266,83.395785 33.409519,83.377857 33.326669,83.312577 32.871178,82.975015 32.784438,82.91463 32.735428,82.88049 32.586153,82.768985 32.452744,82.666785 32.31933,82.564584 32.159609,82.443616 32.097814,82.397966 31.679941,82.089278 29.825893,80.66311 29.356564,80.289346 29.151849,80.126322 28.852392,79.891943 28.69111,79.7685 28.529827,79.645066 28.169183,79.35796 27.889678,79.130499 27.279616,78.63402 27.038266,78.443075 26.273201,77.851563 25.951799,77.603069 25.397441,77.159308 25.041294,76.865434 24.343669,76.289763 23.146179,75.316012 22.512028,74.808742 20.75007,73.399285 19.344998,72.28524 18.89332,71.939576 c -0.726957,-0.556344 -1.207803,-0.961283 -1.289466,-1.085914 -0.06704,-0.102331 -0.06496,-0.106104 0.217996,-0.39342 0.157132,-0.15956 0.582147,-0.535201 0.944478,-0.834756 0.73699,-0.60931 1.830454,-1.555989 2.416976,-2.092518 0.786942,-0.719877 0.816254,-0.736648 0.998297,-0.571058 0.05663,0.05151 0.428654,0.365908 0.82671,0.698644 0.398061,0.332737 0.88193,0.742128 1.075271,0.909744 0.193346,0.167616 0.602776,0.512461 0.909848,0.766336 0.307077,0.253864 0.699058,0.579323 0.871073,0.72324 0.172017,0.143908 0.608076,0.503587 0.969021,0.799288 0.801718,0.656798 2.016536,1.672336 3.044019,2.544685 0.282117,0.23951 0.801399,0.665961 1.153965,0.947668 1.569271,1.253839 2.116714,1.698579 2.520811,2.047926 l 0.4323,0.373725 0.580938,0.01448 c 0.319518,0.008 1.170787,-0.007 1.891704,-0.03374 0.911663,-0.03354 1.335268,-0.03504 1.391269,-0.005 0.09957,0.05331 1.006292,0.804239 1.583395,1.31137 0.236078,0.207456 0.633951,0.540861 0.88416,0.7409 0.596296,0.476733 1.478086,1.199405 1.943759,1.593005 0.204719,0.173036 0.595677,0.48991 0.868784,0.704164 0.465505,0.365179 1.429076,1.143633 2.392296,1.932688 0.230816,0.189081 0.708126,0.568148 1.060698,0.842381 0.73571,0.572235 1.364916,1.140507 1.364436,1.232298 0,0.03463 -0.132767,0.165279 -0.294632,0.290389 -0.424389,0.327993 -0.9231,0.731617 -1.60744,1.300966 -0.329824,0.27441 -0.953278,0.78695 -1.385449,1.138994 -0.777887,0.633638 -0.962983,0.788054 -1.875652,1.564886 -0.503595,0.428638 -0.826677,0.669471 -0.894478,0.666779 -0.02316,-0.0011 -0.139746,-0.08006 -0.259056,-0.17578 z m 10.220417,-8.374249 c -0.07088,-0.06189 -0.246837,-0.205569 -0.390995,-0.3193 -0.255551,-0.201616 -1.007104,-0.846145 -1.589301,-1.362989 -0.15922,-0.141351 -0.555714,-0.488043 -0.881095,-0.770418 C 48.663,78.78254 48.269652,78.439841 48.11425,78.30337 47.747844,77.981545 47.153109,77.479047 46.891386,77.270153 46.655335,77.081764 45.722628,76.291021 45.115862,75.764914 44.88973,75.568828 44.581043,75.30604 44.429896,75.180939 c -0.606287,-0.50183 -1.049449,-0.875664 -1.839194,-1.551478 -0.454918,-0.389297 -0.957409,-0.807642 -1.116629,-0.929669 -0.159231,-0.122025 -0.298806,-0.23328 -0.310174,-0.247235 -0.01136,-0.01397 -0.127636,-0.111545 -0.258357,-0.21686 -0.268449,-0.216271 -1.395924,-1.278237 -1.395924,-1.314813 0,-0.06469 0.790586,-0.802053 1.509531,-1.40795 0.227462,-0.191694 0.608974,-0.517502 0.847814,-0.724 0.23883,-0.206507 0.713399,-0.605827 1.054592,-0.887383 0.341192,-0.281556 0.746879,-0.624574 0.901527,-0.762272 0.154637,-0.137699 0.312833,-0.261771 0.351521,-0.275736 0.04911,-0.01767 0.151885,0.05101 0.340326,0.227471 0.148471,0.139056 0.595122,0.532216 0.992558,0.873697 0.676494,0.58124 1.159297,0.979601 2.971985,2.452187 1.106887,0.899212 1.810214,1.483337 2.17578,1.807009 0.378857,0.335452 0.859921,0.74083 1.571553,1.324287 0.272951,0.223797 0.868488,0.725217 1.323407,1.114275 0.454923,0.389057 1.106289,0.938822 1.447482,1.221706 0.341203,0.282874 0.862877,0.719597 1.159296,0.970477 0.296409,0.25088 0.608005,0.502678 0.692434,0.559549 0.08445,0.0569 0.15306,0.112692 0.152516,0.124072 -5.39e-4,0.01138 -0.08785,0.08585 -0.194025,0.16542 -0.106159,0.07966 -0.557108,0.46128 -1.002101,0.848151 -0.444988,0.386862 -0.929827,0.795495 -1.077409,0.908067 -0.350811,0.267571 -1.010077,0.816418 -1.881247,1.566142 -0.402434,0.346323 -0.738435,0.604839 -0.785782,0.60457 -0.0455,-2.5e-4 -0.140711,-0.05111 -0.211608,-0.112992 z"
       id="path1120"
       sodipodi:nodetypes="cscsscsssscccsccssccssssssscssssssscsssccccssscsssscscsssssscccssccccssccsscscccccsssccssssscsssssccsssccssssccccssccscsscscsssscsssscsssssssscccccscccscssssscsccsssscscccssscsscccccsscsccsccccssccscssccsscssssscccccscssccsssccscccccccsssccsccsccccssscssccscsccccsscccccsscssscssccssssscscscscssc" />
  </g>
</svg>
